<?xml version="1.0" encoding="utf-8" standalone="no"?>
<!DOCTYPE svg PUBLIC "-//W3C//DTD SVG 1.1//EN"
  "http://www.w3.org/Graphics/SVG/1.1/DTD/svg11.dtd">
<svg xmlns:xlink="http://www.w3.org/1999/xlink" width="782.74375pt" height="392.994375pt" viewBox="0 0 782.74375 392.994375" xmlns="http://www.w3.org/2000/svg" version="1.1">
 <metadata>
  <rdf:RDF xmlns:dc="http://purl.org/dc/elements/1.1/" xmlns:cc="http://creativecommons.org/ns#" xmlns:rdf="http://www.w3.org/1999/02/22-rdf-syntax-ns#">
   <cc:Work>
    <dc:type rdf:resource="http://purl.org/dc/dcmitype/StillImage"/>
    <dc:date>2025-12-09T20:39:27.933732</dc:date>
    <dc:format>image/svg+xml</dc:format>
    <dc:creator>
     <cc:Agent>
      <dc:title>Matplotlib v3.8.2, https://matplotlib.org/</dc:title>
     </cc:Agent>
    </dc:creator>
   </cc:Work>
  </rdf:RDF>
 </metadata>
 <defs>
  <style type="text/css">*{stroke-linejoin: round; stroke-linecap: butt}</style>
 </defs>
 <g id="figure_1">
  <g id="patch_1">
   <path d="M 0 392.994375 
L 782.74375 392.994375 
L 782.74375 0 
L 0 0 
z
" style="fill: #ffffff"/>
  </g>
  <g id="axes_1">
   <g id="patch_2">
    <path d="M 50.14375 189.118125 
L 775.54375 189.118125 
L 775.54375 22.798125 
L 50.14375 22.798125 
z
" style="fill: #ffffff"/>
   </g>
   <g id="PolyCollection_1">
    <defs>
     <path id="m05f73889e6" d="M 83.116477 -211.43625 
L 83.116477 -362.63625 
L 89.777634 -362.077793 
L 96.438791 -360.416174 
L 103.099948 -357.692306 
L 109.761105 -353.973261 
L 116.422262 -349.350614 
L 123.083419 -343.938189 
L 129.744576 -337.869259 
L 136.405733 -331.293261 
L 143.06689 -324.372117 
L 149.728048 -317.27625 
L 156.389205 -310.180383 
L 163.050362 -303.259239 
L 169.711519 -296.683241 
L 176.372676 -290.614311 
L 183.033833 -285.201886 
L 189.69499 -280.579239 
L 196.356147 -276.860194 
L 203.017304 -274.136326 
L 209.678461 -272.474707 
L 216.339618 -271.91625 
L 223.000775 -271.91625 
L 229.661932 -271.91625 
L 236.323089 -271.91625 
L 242.984246 -271.91625 
L 249.645403 -271.91625 
L 256.30656 -271.584934 
L 262.967717 -270.594617 
L 269.628874 -268.956148 
L 276.290031 -266.687479 
L 282.951188 -263.813466 
L 289.612345 -260.365598 
L 296.273502 -256.381649 
L 302.934659 -251.905269 
L 309.595816 -246.985502 
L 316.256973 -241.67625 
L 322.91813 -236.035682 
L 329.579287 -230.125598 
L 336.240444 -224.010749 
L 342.901601 -217.758131 
L 349.562758 -211.43625 
L 356.223915 -230.358563 
L 362.885072 -248.814946 
L 369.546229 -266.350941 
L 376.207386 -282.534754 
L 382.868543 -296.967886 
L 389.5297 -309.294946 
L 396.190857 -319.212399 
L 402.852014 -326.476046 
L 409.513171 -330.907032 
L 416.174329 -332.39625 
L 422.835486 -331.185212 
L 429.496643 -327.69409 
L 436.1578 -322.321472 
L 442.818957 -315.647684 
L 449.480114 -308.331893 
L 456.141271 -301.006316 
L 462.802428 -294.190639 
L 469.463585 -288.24143 
L 476.124742 -283.3402 
L 482.785899 -279.513858 
L 489.447056 -276.675225 
L 496.108213 -274.67 
L 502.76937 -273.319153 
L 509.430527 -272.4503 
L 516.091684 -271.91625 
L 522.752841 -271.91625 
L 529.413998 -271.91625 
L 536.075155 -271.91625 
L 542.736312 -271.91625 
L 549.397469 -271.91625 
L 556.058626 -271.91625 
L 562.719783 -271.91625 
L 569.38094 -271.91625 
L 576.042097 -271.91625 
L 582.703254 -271.91625 
L 589.364411 -271.91625 
L 596.025568 -271.91625 
L 602.686725 -271.91625 
L 609.347882 -271.91625 
L 616.009039 -272.474707 
L 622.670196 -274.136326 
L 629.331353 -276.860194 
L 635.99251 -280.579239 
L 642.653667 -285.201886 
L 649.314824 -290.614311 
L 655.975981 -296.683241 
L 662.637138 -303.259239 
L 669.298295 -310.180383 
L 675.959452 -317.27625 
L 682.62061 -324.372117 
L 689.281767 -331.293261 
L 695.942924 -337.869259 
L 702.604081 -343.938189 
L 709.265238 -349.350614 
L 715.926395 -353.973261 
L 722.587552 -357.692306 
L 729.248709 -360.416174 
L 735.909866 -362.077793 
L 742.571023 -362.63625 
L 742.571023 -211.43625 
L 742.571023 -211.43625 
L 735.909866 -211.43625 
L 729.248709 -211.43625 
L 722.587552 -211.43625 
L 715.926395 -211.43625 
L 709.265238 -211.43625 
L 702.604081 -211.43625 
L 695.942924 -211.43625 
L 689.281767 -211.43625 
L 682.62061 -211.43625 
L 675.959452 -211.43625 
L 669.298295 -211.43625 
L 662.637138 -211.43625 
L 655.975981 -211.43625 
L 649.314824 -211.43625 
L 642.653667 -211.43625 
L 635.99251 -211.43625 
L 629.331353 -211.43625 
L 622.670196 -211.43625 
L 616.009039 -211.43625 
L 609.347882 -211.43625 
L 602.686725 -211.43625 
L 596.025568 -211.43625 
L 589.364411 -211.43625 
L 582.703254 -211.43625 
L 576.042097 -211.43625 
L 569.38094 -211.43625 
L 562.719783 -211.43625 
L 556.058626 -211.43625 
L 549.397469 -211.43625 
L 542.736312 -211.43625 
L 536.075155 -211.43625 
L 529.413998 -211.43625 
L 522.752841 -211.43625 
L 516.091684 -211.43625 
L 509.430527 -211.43625 
L 502.76937 -211.43625 
L 496.108213 -211.43625 
L 489.447056 -211.43625 
L 482.785899 -211.43625 
L 476.124742 -211.43625 
L 469.463585 -211.43625 
L 462.802428 -211.43625 
L 456.141271 -211.43625 
L 449.480114 -211.43625 
L 442.818957 -211.43625 
L 436.1578 -211.43625 
L 429.496643 -211.43625 
L 422.835486 -211.43625 
L 416.174329 -211.43625 
L 409.513171 -211.43625 
L 402.852014 -211.43625 
L 396.190857 -211.43625 
L 389.5297 -211.43625 
L 382.868543 -211.43625 
L 376.207386 -211.43625 
L 369.546229 -211.43625 
L 362.885072 -211.43625 
L 356.223915 -211.43625 
L 349.562758 -211.43625 
L 342.901601 -211.43625 
L 336.240444 -211.43625 
L 329.579287 -211.43625 
L 322.91813 -211.43625 
L 316.256973 -211.43625 
L 309.595816 -211.43625 
L 302.934659 -211.43625 
L 296.273502 -211.43625 
L 289.612345 -211.43625 
L 282.951188 -211.43625 
L 276.290031 -211.43625 
L 269.628874 -211.43625 
L 262.967717 -211.43625 
L 256.30656 -211.43625 
L 249.645403 -211.43625 
L 242.984246 -211.43625 
L 236.323089 -211.43625 
L 229.661932 -211.43625 
L 223.000775 -211.43625 
L 216.339618 -211.43625 
L 209.678461 -211.43625 
L 203.017304 -211.43625 
L 196.356147 -211.43625 
L 189.69499 -211.43625 
L 183.033833 -211.43625 
L 176.372676 -211.43625 
L 169.711519 -211.43625 
L 163.050362 -211.43625 
L 156.389205 -211.43625 
L 149.728048 -211.43625 
L 143.06689 -211.43625 
L 136.405733 -211.43625 
L 129.744576 -211.43625 
L 123.083419 -211.43625 
L 116.422262 -211.43625 
L 109.761105 -211.43625 
L 103.099948 -211.43625 
L 96.438791 -211.43625 
L 89.777634 -211.43625 
L 83.116477 -211.43625 
z
" style="stroke: #a52a2a; stroke-opacity: 0.6"/>
    </defs>
    <g clip-path="url(#p96fb8bcea9)">
     <use xlink:href="#m05f73889e6" x="0" y="392.994375" style="fill: #a52a2a; fill-opacity: 0.6; stroke: #a52a2a; stroke-opacity: 0.6"/>
    </g>
   </g>
   <g id="matplotlib.axis_1">
    <g id="xtick_1">
     <g id="line2d_1">
      <defs>
       <path id="md3da73b5d2" d="M 0 0 
L 0 3.5 
" style="stroke: #000000; stroke-width: 0.8"/>
      </defs>
      <g>
       <use xlink:href="#md3da73b5d2" x="83.116477" y="189.118125" style="stroke: #000000; stroke-width: 0.8"/>
      </g>
     </g>
     <g id="text_1">
      <!-- 0 -->
      <g transform="translate(79.935227 203.716562) scale(0.1 -0.1)">
       <defs>
        <path id="DejaVuSans-30" d="M 2034 4250 
Q 1547 4250 1301 3770 
Q 1056 3291 1056 2328 
Q 1056 1369 1301 889 
Q 1547 409 2034 409 
Q 2525 409 2770 889 
Q 3016 1369 3016 2328 
Q 3016 3291 2770 3770 
Q 2525 4250 2034 4250 
z
M 2034 4750 
Q 2819 4750 3233 4129 
Q 3647 3509 3647 2328 
Q 3647 1150 3233 529 
Q 2819 -91 2034 -91 
Q 1250 -91 836 529 
Q 422 1150 422 2328 
Q 422 3509 836 4129 
Q 1250 4750 2034 4750 
z
" transform="scale(0.015625)"/>
       </defs>
       <use xlink:href="#DejaVuSans-30"/>
      </g>
     </g>
    </g>
    <g id="xtick_2">
     <g id="line2d_2">
      <g>
       <use xlink:href="#md3da73b5d2" x="216.339618" y="189.118125" style="stroke: #000000; stroke-width: 0.8"/>
      </g>
     </g>
     <g id="text_2">
      <!-- 20 -->
      <g transform="translate(209.977118 203.716562) scale(0.1 -0.1)">
       <defs>
        <path id="DejaVuSans-32" d="M 1228 531 
L 3431 531 
L 3431 0 
L 469 0 
L 469 531 
Q 828 903 1448 1529 
Q 2069 2156 2228 2338 
Q 2531 2678 2651 2914 
Q 2772 3150 2772 3378 
Q 2772 3750 2511 3984 
Q 2250 4219 1831 4219 
Q 1534 4219 1204 4116 
Q 875 4013 500 3803 
L 500 4441 
Q 881 4594 1212 4672 
Q 1544 4750 1819 4750 
Q 2544 4750 2975 4387 
Q 3406 4025 3406 3419 
Q 3406 3131 3298 2873 
Q 3191 2616 2906 2266 
Q 2828 2175 2409 1742 
Q 1991 1309 1228 531 
z
" transform="scale(0.015625)"/>
       </defs>
       <use xlink:href="#DejaVuSans-32"/>
       <use xlink:href="#DejaVuSans-30" x="63.623047"/>
      </g>
     </g>
    </g>
    <g id="xtick_3">
     <g id="line2d_3">
      <g>
       <use xlink:href="#md3da73b5d2" x="349.562758" y="189.118125" style="stroke: #000000; stroke-width: 0.8"/>
      </g>
     </g>
     <g id="text_3">
      <!-- 40 -->
      <g transform="translate(343.200258 203.716562) scale(0.1 -0.1)">
       <defs>
        <path id="DejaVuSans-34" d="M 2419 4116 
L 825 1625 
L 2419 1625 
L 2419 4116 
z
M 2253 4666 
L 3047 4666 
L 3047 1625 
L 3713 1625 
L 3713 1100 
L 3047 1100 
L 3047 0 
L 2419 0 
L 2419 1100 
L 313 1100 
L 313 1709 
L 2253 4666 
z
" transform="scale(0.015625)"/>
       </defs>
       <use xlink:href="#DejaVuSans-34"/>
       <use xlink:href="#DejaVuSans-30" x="63.623047"/>
      </g>
     </g>
    </g>
    <g id="xtick_4">
     <g id="line2d_4">
      <g>
       <use xlink:href="#md3da73b5d2" x="482.785899" y="189.118125" style="stroke: #000000; stroke-width: 0.8"/>
      </g>
     </g>
     <g id="text_4">
      <!-- 60 -->
      <g transform="translate(476.423399 203.716562) scale(0.1 -0.1)">
       <defs>
        <path id="DejaVuSans-36" d="M 2113 2584 
Q 1688 2584 1439 2293 
Q 1191 2003 1191 1497 
Q 1191 994 1439 701 
Q 1688 409 2113 409 
Q 2538 409 2786 701 
Q 3034 994 3034 1497 
Q 3034 2003 2786 2293 
Q 2538 2584 2113 2584 
z
M 3366 4563 
L 3366 3988 
Q 3128 4100 2886 4159 
Q 2644 4219 2406 4219 
Q 1781 4219 1451 3797 
Q 1122 3375 1075 2522 
Q 1259 2794 1537 2939 
Q 1816 3084 2150 3084 
Q 2853 3084 3261 2657 
Q 3669 2231 3669 1497 
Q 3669 778 3244 343 
Q 2819 -91 2113 -91 
Q 1303 -91 875 529 
Q 447 1150 447 2328 
Q 447 3434 972 4092 
Q 1497 4750 2381 4750 
Q 2619 4750 2861 4703 
Q 3103 4656 3366 4563 
z
" transform="scale(0.015625)"/>
       </defs>
       <use xlink:href="#DejaVuSans-36"/>
       <use xlink:href="#DejaVuSans-30" x="63.623047"/>
      </g>
     </g>
    </g>
    <g id="xtick_5">
     <g id="line2d_5">
      <g>
       <use xlink:href="#md3da73b5d2" x="616.009039" y="189.118125" style="stroke: #000000; stroke-width: 0.8"/>
      </g>
     </g>
     <g id="text_5">
      <!-- 80 -->
      <g transform="translate(609.646539 203.716562) scale(0.1 -0.1)">
       <defs>
        <path id="DejaVuSans-38" d="M 2034 2216 
Q 1584 2216 1326 1975 
Q 1069 1734 1069 1313 
Q 1069 891 1326 650 
Q 1584 409 2034 409 
Q 2484 409 2743 651 
Q 3003 894 3003 1313 
Q 3003 1734 2745 1975 
Q 2488 2216 2034 2216 
z
M 1403 2484 
Q 997 2584 770 2862 
Q 544 3141 544 3541 
Q 544 4100 942 4425 
Q 1341 4750 2034 4750 
Q 2731 4750 3128 4425 
Q 3525 4100 3525 3541 
Q 3525 3141 3298 2862 
Q 3072 2584 2669 2484 
Q 3125 2378 3379 2068 
Q 3634 1759 3634 1313 
Q 3634 634 3220 271 
Q 2806 -91 2034 -91 
Q 1263 -91 848 271 
Q 434 634 434 1313 
Q 434 1759 690 2068 
Q 947 2378 1403 2484 
z
M 1172 3481 
Q 1172 3119 1398 2916 
Q 1625 2713 2034 2713 
Q 2441 2713 2670 2916 
Q 2900 3119 2900 3481 
Q 2900 3844 2670 4047 
Q 2441 4250 2034 4250 
Q 1625 4250 1398 4047 
Q 1172 3844 1172 3481 
z
" transform="scale(0.015625)"/>
       </defs>
       <use xlink:href="#DejaVuSans-38"/>
       <use xlink:href="#DejaVuSans-30" x="63.623047"/>
      </g>
     </g>
    </g>
    <g id="xtick_6">
     <g id="line2d_6">
      <g>
       <use xlink:href="#md3da73b5d2" x="749.23218" y="189.118125" style="stroke: #000000; stroke-width: 0.8"/>
      </g>
     </g>
     <g id="text_6">
      <!-- 100 -->
      <g transform="translate(739.68843 203.716562) scale(0.1 -0.1)">
       <defs>
        <path id="DejaVuSans-31" d="M 794 531 
L 1825 531 
L 1825 4091 
L 703 3866 
L 703 4441 
L 1819 4666 
L 2450 4666 
L 2450 531 
L 3481 531 
L 3481 0 
L 794 0 
L 794 531 
z
" transform="scale(0.015625)"/>
       </defs>
       <use xlink:href="#DejaVuSans-31"/>
       <use xlink:href="#DejaVuSans-30" x="63.623047"/>
       <use xlink:href="#DejaVuSans-30" x="127.246094"/>
      </g>
     </g>
    </g>
    <g id="text_7">
     <!-- y/$\Delta y$ -->
     <g transform="translate(401.79375 217.374375) scale(0.1 -0.1)">
      <defs>
       <path id="DejaVuSans-79" d="M 2059 -325 
Q 1816 -950 1584 -1140 
Q 1353 -1331 966 -1331 
L 506 -1331 
L 506 -850 
L 844 -850 
Q 1081 -850 1212 -737 
Q 1344 -625 1503 -206 
L 1606 56 
L 191 3500 
L 800 3500 
L 1894 763 
L 2988 3500 
L 3597 3500 
L 2059 -325 
z
" transform="scale(0.015625)"/>
       <path id="DejaVuSans-2f" d="M 1625 4666 
L 2156 4666 
L 531 -594 
L 0 -594 
L 1625 4666 
z
" transform="scale(0.015625)"/>
       <path id="DejaVuSans-394" d="M 2188 4044 
L 906 525 
L 3472 525 
L 2188 4044 
z
M 50 0 
L 1831 4666 
L 2547 4666 
L 4325 0 
L 50 0 
z
" transform="scale(0.015625)"/>
       <path id="DejaVuSans-Oblique-79" d="M 1588 -325 
Q 1188 -997 936 -1164 
Q 684 -1331 294 -1331 
L -159 -1331 
L -63 -850 
L 269 -850 
Q 509 -850 678 -719 
Q 847 -588 1056 -206 
L 1234 128 
L 459 3500 
L 1069 3500 
L 1650 819 
L 3256 3500 
L 3859 3500 
L 1588 -325 
z
" transform="scale(0.015625)"/>
      </defs>
      <use xlink:href="#DejaVuSans-79" transform="translate(0 0.09375)"/>
      <use xlink:href="#DejaVuSans-2f" transform="translate(59.179688 0.09375)"/>
      <use xlink:href="#DejaVuSans-394" transform="translate(92.871094 0.09375)"/>
      <use xlink:href="#DejaVuSans-Oblique-79" transform="translate(161.279297 0.09375)"/>
     </g>
    </g>
   </g>
   <g id="matplotlib.axis_2">
    <g id="ytick_1">
     <g id="line2d_7">
      <defs>
       <path id="m8ae1a77779" d="M 0 0 
L -3.5 0 
" style="stroke: #000000; stroke-width: 0.8"/>
      </defs>
      <g>
       <use xlink:href="#m8ae1a77779" x="50.14375" y="181.558125" style="stroke: #000000; stroke-width: 0.8"/>
      </g>
     </g>
     <g id="text_8">
      <!-- 0.0 -->
      <g transform="translate(27.240625 185.357344) scale(0.1 -0.1)">
       <defs>
        <path id="DejaVuSans-2e" d="M 684 794 
L 1344 794 
L 1344 0 
L 684 0 
L 684 794 
z
" transform="scale(0.015625)"/>
       </defs>
       <use xlink:href="#DejaVuSans-30"/>
       <use xlink:href="#DejaVuSans-2e" x="63.623047"/>
       <use xlink:href="#DejaVuSans-30" x="95.410156"/>
      </g>
     </g>
    </g>
    <g id="ytick_2">
     <g id="line2d_8">
      <g>
       <use xlink:href="#m8ae1a77779" x="50.14375" y="151.318125" style="stroke: #000000; stroke-width: 0.8"/>
      </g>
     </g>
     <g id="text_9">
      <!-- 0.2 -->
      <g transform="translate(27.240625 155.117344) scale(0.1 -0.1)">
       <use xlink:href="#DejaVuSans-30"/>
       <use xlink:href="#DejaVuSans-2e" x="63.623047"/>
       <use xlink:href="#DejaVuSans-32" x="95.410156"/>
      </g>
     </g>
    </g>
    <g id="ytick_3">
     <g id="line2d_9">
      <g>
       <use xlink:href="#m8ae1a77779" x="50.14375" y="121.078125" style="stroke: #000000; stroke-width: 0.8"/>
      </g>
     </g>
     <g id="text_10">
      <!-- 0.4 -->
      <g transform="translate(27.240625 124.877344) scale(0.1 -0.1)">
       <use xlink:href="#DejaVuSans-30"/>
       <use xlink:href="#DejaVuSans-2e" x="63.623047"/>
       <use xlink:href="#DejaVuSans-34" x="95.410156"/>
      </g>
     </g>
    </g>
    <g id="ytick_4">
     <g id="line2d_10">
      <g>
       <use xlink:href="#m8ae1a77779" x="50.14375" y="90.838125" style="stroke: #000000; stroke-width: 0.8"/>
      </g>
     </g>
     <g id="text_11">
      <!-- 0.6 -->
      <g transform="translate(27.240625 94.637344) scale(0.1 -0.1)">
       <use xlink:href="#DejaVuSans-30"/>
       <use xlink:href="#DejaVuSans-2e" x="63.623047"/>
       <use xlink:href="#DejaVuSans-36" x="95.410156"/>
      </g>
     </g>
    </g>
    <g id="ytick_5">
     <g id="line2d_11">
      <g>
       <use xlink:href="#m8ae1a77779" x="50.14375" y="60.598125" style="stroke: #000000; stroke-width: 0.8"/>
      </g>
     </g>
     <g id="text_12">
      <!-- 0.8 -->
      <g transform="translate(27.240625 64.397344) scale(0.1 -0.1)">
       <use xlink:href="#DejaVuSans-30"/>
       <use xlink:href="#DejaVuSans-2e" x="63.623047"/>
       <use xlink:href="#DejaVuSans-38" x="95.410156"/>
      </g>
     </g>
    </g>
    <g id="ytick_6">
     <g id="line2d_12">
      <g>
       <use xlink:href="#m8ae1a77779" x="50.14375" y="30.358125" style="stroke: #000000; stroke-width: 0.8"/>
      </g>
     </g>
     <g id="text_13">
      <!-- 1.0 -->
      <g transform="translate(27.240625 34.157344) scale(0.1 -0.1)">
       <use xlink:href="#DejaVuSans-31"/>
       <use xlink:href="#DejaVuSans-2e" x="63.623047"/>
       <use xlink:href="#DejaVuSans-30" x="95.410156"/>
      </g>
     </g>
    </g>
    <g id="text_14">
     <!-- 1 - bathymetry -->
     <g transform="translate(21.160938 143.369844) rotate(-90) scale(0.1 -0.1)">
      <defs>
       <path id="DejaVuSans-20" transform="scale(0.015625)"/>
       <path id="DejaVuSans-2d" d="M 313 2009 
L 1997 2009 
L 1997 1497 
L 313 1497 
L 313 2009 
z
" transform="scale(0.015625)"/>
       <path id="DejaVuSans-62" d="M 3116 1747 
Q 3116 2381 2855 2742 
Q 2594 3103 2138 3103 
Q 1681 3103 1420 2742 
Q 1159 2381 1159 1747 
Q 1159 1113 1420 752 
Q 1681 391 2138 391 
Q 2594 391 2855 752 
Q 3116 1113 3116 1747 
z
M 1159 2969 
Q 1341 3281 1617 3432 
Q 1894 3584 2278 3584 
Q 2916 3584 3314 3078 
Q 3713 2572 3713 1747 
Q 3713 922 3314 415 
Q 2916 -91 2278 -91 
Q 1894 -91 1617 61 
Q 1341 213 1159 525 
L 1159 0 
L 581 0 
L 581 4863 
L 1159 4863 
L 1159 2969 
z
" transform="scale(0.015625)"/>
       <path id="DejaVuSans-61" d="M 2194 1759 
Q 1497 1759 1228 1600 
Q 959 1441 959 1056 
Q 959 750 1161 570 
Q 1363 391 1709 391 
Q 2188 391 2477 730 
Q 2766 1069 2766 1631 
L 2766 1759 
L 2194 1759 
z
M 3341 1997 
L 3341 0 
L 2766 0 
L 2766 531 
Q 2569 213 2275 61 
Q 1981 -91 1556 -91 
Q 1019 -91 701 211 
Q 384 513 384 1019 
Q 384 1609 779 1909 
Q 1175 2209 1959 2209 
L 2766 2209 
L 2766 2266 
Q 2766 2663 2505 2880 
Q 2244 3097 1772 3097 
Q 1472 3097 1187 3025 
Q 903 2953 641 2809 
L 641 3341 
Q 956 3463 1253 3523 
Q 1550 3584 1831 3584 
Q 2591 3584 2966 3190 
Q 3341 2797 3341 1997 
z
" transform="scale(0.015625)"/>
       <path id="DejaVuSans-74" d="M 1172 4494 
L 1172 3500 
L 2356 3500 
L 2356 3053 
L 1172 3053 
L 1172 1153 
Q 1172 725 1289 603 
Q 1406 481 1766 481 
L 2356 481 
L 2356 0 
L 1766 0 
Q 1100 0 847 248 
Q 594 497 594 1153 
L 594 3053 
L 172 3053 
L 172 3500 
L 594 3500 
L 594 4494 
L 1172 4494 
z
" transform="scale(0.015625)"/>
       <path id="DejaVuSans-68" d="M 3513 2113 
L 3513 0 
L 2938 0 
L 2938 2094 
Q 2938 2591 2744 2837 
Q 2550 3084 2163 3084 
Q 1697 3084 1428 2787 
Q 1159 2491 1159 1978 
L 1159 0 
L 581 0 
L 581 4863 
L 1159 4863 
L 1159 2956 
Q 1366 3272 1645 3428 
Q 1925 3584 2291 3584 
Q 2894 3584 3203 3211 
Q 3513 2838 3513 2113 
z
" transform="scale(0.015625)"/>
       <path id="DejaVuSans-6d" d="M 3328 2828 
Q 3544 3216 3844 3400 
Q 4144 3584 4550 3584 
Q 5097 3584 5394 3201 
Q 5691 2819 5691 2113 
L 5691 0 
L 5113 0 
L 5113 2094 
Q 5113 2597 4934 2840 
Q 4756 3084 4391 3084 
Q 3944 3084 3684 2787 
Q 3425 2491 3425 1978 
L 3425 0 
L 2847 0 
L 2847 2094 
Q 2847 2600 2669 2842 
Q 2491 3084 2119 3084 
Q 1678 3084 1418 2786 
Q 1159 2488 1159 1978 
L 1159 0 
L 581 0 
L 581 3500 
L 1159 3500 
L 1159 2956 
Q 1356 3278 1631 3431 
Q 1906 3584 2284 3584 
Q 2666 3584 2933 3390 
Q 3200 3197 3328 2828 
z
" transform="scale(0.015625)"/>
       <path id="DejaVuSans-65" d="M 3597 1894 
L 3597 1613 
L 953 1613 
Q 991 1019 1311 708 
Q 1631 397 2203 397 
Q 2534 397 2845 478 
Q 3156 559 3463 722 
L 3463 178 
Q 3153 47 2828 -22 
Q 2503 -91 2169 -91 
Q 1331 -91 842 396 
Q 353 884 353 1716 
Q 353 2575 817 3079 
Q 1281 3584 2069 3584 
Q 2775 3584 3186 3129 
Q 3597 2675 3597 1894 
z
M 3022 2063 
Q 3016 2534 2758 2815 
Q 2500 3097 2075 3097 
Q 1594 3097 1305 2825 
Q 1016 2553 972 2059 
L 3022 2063 
z
" transform="scale(0.015625)"/>
       <path id="DejaVuSans-72" d="M 2631 2963 
Q 2534 3019 2420 3045 
Q 2306 3072 2169 3072 
Q 1681 3072 1420 2755 
Q 1159 2438 1159 1844 
L 1159 0 
L 581 0 
L 581 3500 
L 1159 3500 
L 1159 2956 
Q 1341 3275 1631 3429 
Q 1922 3584 2338 3584 
Q 2397 3584 2469 3576 
Q 2541 3569 2628 3553 
L 2631 2963 
z
" transform="scale(0.015625)"/>
      </defs>
      <use xlink:href="#DejaVuSans-31"/>
      <use xlink:href="#DejaVuSans-20" x="63.623047"/>
      <use xlink:href="#DejaVuSans-2d" x="95.410156"/>
      <use xlink:href="#DejaVuSans-20" x="131.494141"/>
      <use xlink:href="#DejaVuSans-62" x="163.28125"/>
      <use xlink:href="#DejaVuSans-61" x="226.757812"/>
      <use xlink:href="#DejaVuSans-74" x="288.037109"/>
      <use xlink:href="#DejaVuSans-68" x="327.246094"/>
      <use xlink:href="#DejaVuSans-79" x="390.625"/>
      <use xlink:href="#DejaVuSans-6d" x="449.804688"/>
      <use xlink:href="#DejaVuSans-65" x="547.216797"/>
      <use xlink:href="#DejaVuSans-74" x="608.740234"/>
      <use xlink:href="#DejaVuSans-72" x="647.949219"/>
      <use xlink:href="#DejaVuSans-79" x="689.0625"/>
     </g>
    </g>
   </g>
   <g id="line2d_13">
    <path d="M 83.116477 30.358125 
L 89.777634 30.916582 
L 96.438791 32.578201 
L 103.099948 35.302069 
L 109.761105 39.021114 
L 116.422262 43.643761 
L 123.083419 49.056186 
L 129.744576 55.125116 
L 136.405733 61.701114 
L 143.06689 68.622258 
L 149.728048 75.718125 
L 156.389205 82.813992 
L 163.050362 89.735136 
L 169.711519 96.311134 
L 176.372676 102.380064 
L 183.033833 107.792489 
L 189.69499 112.415136 
L 196.356147 116.134181 
L 203.017304 118.858049 
L 209.678461 120.519668 
L 216.339618 121.078125 
L 223.000775 121.078125 
L 229.661932 121.078125 
L 236.323089 121.078125 
L 242.984246 121.078125 
L 249.645403 121.078125 
L 256.30656 121.409441 
L 262.967717 122.399758 
L 269.628874 124.038227 
L 276.290031 126.306896 
L 282.951188 129.180909 
L 289.612345 132.628777 
L 296.273502 136.612726 
L 302.934659 141.089106 
L 309.595816 146.008873 
L 316.256973 151.318125 
L 322.91813 156.958693 
L 329.579287 162.868777 
L 336.240444 168.983626 
L 342.901601 175.236244 
L 349.562758 181.558125 
L 356.223915 162.635812 
L 362.885072 144.179429 
L 369.546229 126.643434 
L 376.207386 110.459621 
L 382.868543 96.026489 
L 389.5297 83.699429 
L 396.190857 73.781976 
L 402.852014 66.518329 
L 409.513171 62.087343 
L 416.174329 60.598125 
L 422.835486 61.809163 
L 429.496643 65.300285 
L 436.1578 70.672903 
L 442.818957 77.346691 
L 449.480114 84.662482 
L 456.141271 91.988059 
L 462.802428 98.803736 
L 469.463585 104.752945 
L 476.124742 109.654175 
L 482.785899 113.480517 
L 489.447056 116.31915 
L 496.108213 118.324375 
L 502.76937 119.675222 
L 509.430527 120.544075 
L 516.091684 121.078125 
L 522.752841 121.078125 
L 529.413998 121.078125 
L 536.075155 121.078125 
L 542.736312 121.078125 
L 549.397469 121.078125 
L 556.058626 121.078125 
L 562.719783 121.078125 
L 569.38094 121.078125 
L 576.042097 121.078125 
L 582.703254 121.078125 
L 589.364411 121.078125 
L 596.025568 121.078125 
L 602.686725 121.078125 
L 609.347882 121.078125 
L 616.009039 120.519668 
L 622.670196 118.858049 
L 629.331353 116.134181 
L 635.99251 112.415136 
L 642.653667 107.792489 
L 649.314824 102.380064 
L 655.975981 96.311134 
L 662.637138 89.735136 
L 669.298295 82.813992 
L 675.959452 75.718125 
L 682.62061 68.622258 
L 689.281767 61.701114 
L 695.942924 55.125116 
L 702.604081 49.056186 
L 709.265238 43.643761 
L 715.926395 39.021114 
L 722.587552 35.302069 
L 729.248709 32.578201 
L 735.909866 30.916582 
L 742.571023 30.358125 
" clip-path="url(#p96fb8bcea9)" style="fill: none; stroke: #a52a2a; stroke-width: 1.5; stroke-linecap: square"/>
   </g>
   <g id="patch_3">
    <path d="M 50.14375 189.118125 
L 50.14375 22.798125 
" style="fill: none; stroke: #000000; stroke-width: 0.8; stroke-linejoin: miter; stroke-linecap: square"/>
   </g>
   <g id="patch_4">
    <path d="M 775.54375 189.118125 
L 775.54375 22.798125 
" style="fill: none; stroke: #000000; stroke-width: 0.8; stroke-linejoin: miter; stroke-linecap: square"/>
   </g>
   <g id="patch_5">
    <path d="M 50.14375 189.118125 
L 775.54375 189.118125 
" style="fill: none; stroke: #000000; stroke-width: 0.8; stroke-linejoin: miter; stroke-linecap: square"/>
   </g>
   <g id="patch_6">
    <path d="M 50.14375 22.798125 
L 775.54375 22.798125 
" style="fill: none; stroke: #000000; stroke-width: 0.8; stroke-linejoin: miter; stroke-linecap: square"/>
   </g>
   <g id="text_15">
    <!-- Profil dna na środku domeny -->
    <g transform="translate(327.089688 16.798125) scale(0.12 -0.12)">
     <defs>
      <path id="DejaVuSans-50" d="M 1259 4147 
L 1259 2394 
L 2053 2394 
Q 2494 2394 2734 2622 
Q 2975 2850 2975 3272 
Q 2975 3691 2734 3919 
Q 2494 4147 2053 4147 
L 1259 4147 
z
M 628 4666 
L 2053 4666 
Q 2838 4666 3239 4311 
Q 3641 3956 3641 3272 
Q 3641 2581 3239 2228 
Q 2838 1875 2053 1875 
L 1259 1875 
L 1259 0 
L 628 0 
L 628 4666 
z
" transform="scale(0.015625)"/>
      <path id="DejaVuSans-6f" d="M 1959 3097 
Q 1497 3097 1228 2736 
Q 959 2375 959 1747 
Q 959 1119 1226 758 
Q 1494 397 1959 397 
Q 2419 397 2687 759 
Q 2956 1122 2956 1747 
Q 2956 2369 2687 2733 
Q 2419 3097 1959 3097 
z
M 1959 3584 
Q 2709 3584 3137 3096 
Q 3566 2609 3566 1747 
Q 3566 888 3137 398 
Q 2709 -91 1959 -91 
Q 1206 -91 779 398 
Q 353 888 353 1747 
Q 353 2609 779 3096 
Q 1206 3584 1959 3584 
z
" transform="scale(0.015625)"/>
      <path id="DejaVuSans-66" d="M 2375 4863 
L 2375 4384 
L 1825 4384 
Q 1516 4384 1395 4259 
Q 1275 4134 1275 3809 
L 1275 3500 
L 2222 3500 
L 2222 3053 
L 1275 3053 
L 1275 0 
L 697 0 
L 697 3053 
L 147 3053 
L 147 3500 
L 697 3500 
L 697 3744 
Q 697 4328 969 4595 
Q 1241 4863 1831 4863 
L 2375 4863 
z
" transform="scale(0.015625)"/>
      <path id="DejaVuSans-69" d="M 603 3500 
L 1178 3500 
L 1178 0 
L 603 0 
L 603 3500 
z
M 603 4863 
L 1178 4863 
L 1178 4134 
L 603 4134 
L 603 4863 
z
" transform="scale(0.015625)"/>
      <path id="DejaVuSans-6c" d="M 603 4863 
L 1178 4863 
L 1178 0 
L 603 0 
L 603 4863 
z
" transform="scale(0.015625)"/>
      <path id="DejaVuSans-64" d="M 2906 2969 
L 2906 4863 
L 3481 4863 
L 3481 0 
L 2906 0 
L 2906 525 
Q 2725 213 2448 61 
Q 2172 -91 1784 -91 
Q 1150 -91 751 415 
Q 353 922 353 1747 
Q 353 2572 751 3078 
Q 1150 3584 1784 3584 
Q 2172 3584 2448 3432 
Q 2725 3281 2906 2969 
z
M 947 1747 
Q 947 1113 1208 752 
Q 1469 391 1925 391 
Q 2381 391 2643 752 
Q 2906 1113 2906 1747 
Q 2906 2381 2643 2742 
Q 2381 3103 1925 3103 
Q 1469 3103 1208 2742 
Q 947 2381 947 1747 
z
" transform="scale(0.015625)"/>
      <path id="DejaVuSans-6e" d="M 3513 2113 
L 3513 0 
L 2938 0 
L 2938 2094 
Q 2938 2591 2744 2837 
Q 2550 3084 2163 3084 
Q 1697 3084 1428 2787 
Q 1159 2491 1159 1978 
L 1159 0 
L 581 0 
L 581 3500 
L 1159 3500 
L 1159 2956 
Q 1366 3272 1645 3428 
Q 1925 3584 2291 3584 
Q 2894 3584 3203 3211 
Q 3513 2838 3513 2113 
z
" transform="scale(0.015625)"/>
      <path id="DejaVuSans-15b" d="M 2242 5119 
L 2864 5119 
L 1846 3944 
L 1367 3944 
L 2242 5119 
z
M 2834 3397 
L 2834 2853 
Q 2591 2978 2328 3040 
Q 2066 3103 1784 3103 
Q 1356 3103 1142 2972 
Q 928 2841 928 2578 
Q 928 2378 1081 2264 
Q 1234 2150 1697 2047 
L 1894 2003 
Q 2506 1872 2764 1633 
Q 3022 1394 3022 966 
Q 3022 478 2636 193 
Q 2250 -91 1575 -91 
Q 1294 -91 989 -36 
Q 684 19 347 128 
L 347 722 
Q 666 556 975 473 
Q 1284 391 1588 391 
Q 1994 391 2212 530 
Q 2431 669 2431 922 
Q 2431 1156 2273 1281 
Q 2116 1406 1581 1522 
L 1381 1569 
Q 847 1681 609 1914 
Q 372 2147 372 2553 
Q 372 3047 722 3315 
Q 1072 3584 1716 3584 
Q 2034 3584 2315 3537 
Q 2597 3491 2834 3397 
z
" transform="scale(0.015625)"/>
      <path id="DejaVuSans-6b" d="M 581 4863 
L 1159 4863 
L 1159 1991 
L 2875 3500 
L 3609 3500 
L 1753 1863 
L 3688 0 
L 2938 0 
L 1159 1709 
L 1159 0 
L 581 0 
L 581 4863 
z
" transform="scale(0.015625)"/>
      <path id="DejaVuSans-75" d="M 544 1381 
L 544 3500 
L 1119 3500 
L 1119 1403 
Q 1119 906 1312 657 
Q 1506 409 1894 409 
Q 2359 409 2629 706 
Q 2900 1003 2900 1516 
L 2900 3500 
L 3475 3500 
L 3475 0 
L 2900 0 
L 2900 538 
Q 2691 219 2414 64 
Q 2138 -91 1772 -91 
Q 1169 -91 856 284 
Q 544 659 544 1381 
z
M 1991 3584 
L 1991 3584 
z
" transform="scale(0.015625)"/>
     </defs>
     <use xlink:href="#DejaVuSans-50"/>
     <use xlink:href="#DejaVuSans-72" x="58.552734"/>
     <use xlink:href="#DejaVuSans-6f" x="97.416016"/>
     <use xlink:href="#DejaVuSans-66" x="158.597656"/>
     <use xlink:href="#DejaVuSans-69" x="193.802734"/>
     <use xlink:href="#DejaVuSans-6c" x="221.585938"/>
     <use xlink:href="#DejaVuSans-20" x="249.369141"/>
     <use xlink:href="#DejaVuSans-64" x="281.15625"/>
     <use xlink:href="#DejaVuSans-6e" x="344.632812"/>
     <use xlink:href="#DejaVuSans-61" x="408.011719"/>
     <use xlink:href="#DejaVuSans-20" x="469.291016"/>
     <use xlink:href="#DejaVuSans-6e" x="501.078125"/>
     <use xlink:href="#DejaVuSans-61" x="564.457031"/>
     <use xlink:href="#DejaVuSans-20" x="625.736328"/>
     <use xlink:href="#DejaVuSans-15b" x="657.523438"/>
     <use xlink:href="#DejaVuSans-72" x="709.623047"/>
     <use xlink:href="#DejaVuSans-6f" x="748.486328"/>
     <use xlink:href="#DejaVuSans-64" x="809.667969"/>
     <use xlink:href="#DejaVuSans-6b" x="873.144531"/>
     <use xlink:href="#DejaVuSans-75" x="927.929688"/>
     <use xlink:href="#DejaVuSans-20" x="991.308594"/>
     <use xlink:href="#DejaVuSans-64" x="1023.095703"/>
     <use xlink:href="#DejaVuSans-6f" x="1086.572266"/>
     <use xlink:href="#DejaVuSans-6d" x="1147.753906"/>
     <use xlink:href="#DejaVuSans-65" x="1245.166016"/>
     <use xlink:href="#DejaVuSans-6e" x="1306.689453"/>
     <use xlink:href="#DejaVuSans-79" x="1370.068359"/>
    </g>
   </g>
  </g>
  <g id="axes_2">
   <g id="patch_7">
    <path d="M 50.14375 355.438125 
L 775.54375 355.438125 
L 775.54375 244.558125 
L 50.14375 244.558125 
z
" style="fill: #ffffff"/>
   </g>
   <g id="matplotlib.axis_3">
    <g id="xtick_7">
     <g id="line2d_14">
      <g>
       <use xlink:href="#md3da73b5d2" x="83.116477" y="355.438125" style="stroke: #000000; stroke-width: 0.8"/>
      </g>
     </g>
     <g id="text_16">
      <!-- 0 -->
      <g transform="translate(79.935227 370.036563) scale(0.1 -0.1)">
       <use xlink:href="#DejaVuSans-30"/>
      </g>
     </g>
    </g>
    <g id="xtick_8">
     <g id="line2d_15">
      <g>
       <use xlink:href="#md3da73b5d2" x="215.271697" y="355.438125" style="stroke: #000000; stroke-width: 0.8"/>
      </g>
     </g>
     <g id="text_17">
      <!-- 100 -->
      <g transform="translate(205.727947 370.036563) scale(0.1 -0.1)">
       <use xlink:href="#DejaVuSans-31"/>
       <use xlink:href="#DejaVuSans-30" x="63.623047"/>
       <use xlink:href="#DejaVuSans-30" x="127.246094"/>
      </g>
     </g>
    </g>
    <g id="xtick_9">
     <g id="line2d_16">
      <g>
       <use xlink:href="#md3da73b5d2" x="347.426916" y="355.438125" style="stroke: #000000; stroke-width: 0.8"/>
      </g>
     </g>
     <g id="text_18">
      <!-- 200 -->
      <g transform="translate(337.883166 370.036563) scale(0.1 -0.1)">
       <use xlink:href="#DejaVuSans-32"/>
       <use xlink:href="#DejaVuSans-30" x="63.623047"/>
       <use xlink:href="#DejaVuSans-30" x="127.246094"/>
      </g>
     </g>
    </g>
    <g id="xtick_10">
     <g id="line2d_17">
      <g>
       <use xlink:href="#md3da73b5d2" x="479.582136" y="355.438125" style="stroke: #000000; stroke-width: 0.8"/>
      </g>
     </g>
     <g id="text_19">
      <!-- 300 -->
      <g transform="translate(470.038386 370.036563) scale(0.1 -0.1)">
       <defs>
        <path id="DejaVuSans-33" d="M 2597 2516 
Q 3050 2419 3304 2112 
Q 3559 1806 3559 1356 
Q 3559 666 3084 287 
Q 2609 -91 1734 -91 
Q 1441 -91 1130 -33 
Q 819 25 488 141 
L 488 750 
Q 750 597 1062 519 
Q 1375 441 1716 441 
Q 2309 441 2620 675 
Q 2931 909 2931 1356 
Q 2931 1769 2642 2001 
Q 2353 2234 1838 2234 
L 1294 2234 
L 1294 2753 
L 1863 2753 
Q 2328 2753 2575 2939 
Q 2822 3125 2822 3475 
Q 2822 3834 2567 4026 
Q 2313 4219 1838 4219 
Q 1578 4219 1281 4162 
Q 984 4106 628 3988 
L 628 4550 
Q 988 4650 1302 4700 
Q 1616 4750 1894 4750 
Q 2613 4750 3031 4423 
Q 3450 4097 3450 3541 
Q 3450 3153 3228 2886 
Q 3006 2619 2597 2516 
z
" transform="scale(0.015625)"/>
       </defs>
       <use xlink:href="#DejaVuSans-33"/>
       <use xlink:href="#DejaVuSans-30" x="63.623047"/>
       <use xlink:href="#DejaVuSans-30" x="127.246094"/>
      </g>
     </g>
    </g>
    <g id="xtick_11">
     <g id="line2d_18">
      <g>
       <use xlink:href="#md3da73b5d2" x="611.737355" y="355.438125" style="stroke: #000000; stroke-width: 0.8"/>
      </g>
     </g>
     <g id="text_20">
      <!-- 400 -->
      <g transform="translate(602.193605 370.036563) scale(0.1 -0.1)">
       <use xlink:href="#DejaVuSans-34"/>
       <use xlink:href="#DejaVuSans-30" x="63.623047"/>
       <use xlink:href="#DejaVuSans-30" x="127.246094"/>
      </g>
     </g>
    </g>
    <g id="xtick_12">
     <g id="line2d_19">
      <g>
       <use xlink:href="#md3da73b5d2" x="743.892575" y="355.438125" style="stroke: #000000; stroke-width: 0.8"/>
      </g>
     </g>
     <g id="text_21">
      <!-- 500 -->
      <g transform="translate(734.348825 370.036563) scale(0.1 -0.1)">
       <defs>
        <path id="DejaVuSans-35" d="M 691 4666 
L 3169 4666 
L 3169 4134 
L 1269 4134 
L 1269 2991 
Q 1406 3038 1543 3061 
Q 1681 3084 1819 3084 
Q 2600 3084 3056 2656 
Q 3513 2228 3513 1497 
Q 3513 744 3044 326 
Q 2575 -91 1722 -91 
Q 1428 -91 1123 -41 
Q 819 9 494 109 
L 494 744 
Q 775 591 1075 516 
Q 1375 441 1709 441 
Q 2250 441 2565 725 
Q 2881 1009 2881 1497 
Q 2881 1984 2565 2268 
Q 2250 2553 1709 2553 
Q 1456 2553 1204 2497 
Q 953 2441 691 2322 
L 691 4666 
z
" transform="scale(0.015625)"/>
       </defs>
       <use xlink:href="#DejaVuSans-35"/>
       <use xlink:href="#DejaVuSans-30" x="63.623047"/>
       <use xlink:href="#DejaVuSans-30" x="127.246094"/>
      </g>
     </g>
    </g>
    <g id="text_22">
     <!-- x/$\Delta x$ -->
     <g transform="translate(401.79375 383.714687) scale(0.1 -0.1)">
      <defs>
       <path id="DejaVuSans-78" d="M 3513 3500 
L 2247 1797 
L 3578 0 
L 2900 0 
L 1881 1375 
L 863 0 
L 184 0 
L 1544 1831 
L 300 3500 
L 978 3500 
L 1906 2253 
L 2834 3500 
L 3513 3500 
z
" transform="scale(0.015625)"/>
       <path id="DejaVuSans-Oblique-78" d="M 3841 3500 
L 2234 1784 
L 3219 0 
L 2559 0 
L 1819 1388 
L 531 0 
L -166 0 
L 1556 1844 
L 641 3500 
L 1300 3500 
L 1972 2234 
L 3144 3500 
L 3841 3500 
z
" transform="scale(0.015625)"/>
      </defs>
      <use xlink:href="#DejaVuSans-78" transform="translate(0 0.09375)"/>
      <use xlink:href="#DejaVuSans-2f" transform="translate(59.179688 0.09375)"/>
      <use xlink:href="#DejaVuSans-394" transform="translate(92.871094 0.09375)"/>
      <use xlink:href="#DejaVuSans-Oblique-78" transform="translate(161.279297 0.09375)"/>
     </g>
    </g>
   </g>
   <g id="matplotlib.axis_4">
    <g id="ytick_7">
     <g id="line2d_20">
      <g>
       <use xlink:href="#m8ae1a77779" x="50.14375" y="350.398501" style="stroke: #000000; stroke-width: 0.8"/>
      </g>
     </g>
     <g id="text_23">
      <!-- 0.00 -->
      <g transform="translate(20.878125 354.197719) scale(0.1 -0.1)">
       <use xlink:href="#DejaVuSans-30"/>
       <use xlink:href="#DejaVuSans-2e" x="63.623047"/>
       <use xlink:href="#DejaVuSans-30" x="95.410156"/>
       <use xlink:href="#DejaVuSans-30" x="159.033203"/>
      </g>
     </g>
    </g>
    <g id="ytick_8">
     <g id="line2d_21">
      <g>
       <use xlink:href="#m8ae1a77779" x="50.14375" y="325.198407" style="stroke: #000000; stroke-width: 0.8"/>
      </g>
     </g>
     <g id="text_24">
      <!-- 0.25 -->
      <g transform="translate(20.878125 328.997625) scale(0.1 -0.1)">
       <use xlink:href="#DejaVuSans-30"/>
       <use xlink:href="#DejaVuSans-2e" x="63.623047"/>
       <use xlink:href="#DejaVuSans-32" x="95.410156"/>
       <use xlink:href="#DejaVuSans-35" x="159.033203"/>
      </g>
     </g>
    </g>
    <g id="ytick_9">
     <g id="line2d_22">
      <g>
       <use xlink:href="#m8ae1a77779" x="50.14375" y="299.998313" style="stroke: #000000; stroke-width: 0.8"/>
      </g>
     </g>
     <g id="text_25">
      <!-- 0.50 -->
      <g transform="translate(20.878125 303.797532) scale(0.1 -0.1)">
       <use xlink:href="#DejaVuSans-30"/>
       <use xlink:href="#DejaVuSans-2e" x="63.623047"/>
       <use xlink:href="#DejaVuSans-35" x="95.410156"/>
       <use xlink:href="#DejaVuSans-30" x="159.033203"/>
      </g>
     </g>
    </g>
    <g id="ytick_10">
     <g id="line2d_23">
      <g>
       <use xlink:href="#m8ae1a77779" x="50.14375" y="274.798219" style="stroke: #000000; stroke-width: 0.8"/>
      </g>
     </g>
     <g id="text_26">
      <!-- 0.75 -->
      <g transform="translate(20.878125 278.597438) scale(0.1 -0.1)">
       <defs>
        <path id="DejaVuSans-37" d="M 525 4666 
L 3525 4666 
L 3525 4397 
L 1831 0 
L 1172 0 
L 2766 4134 
L 525 4134 
L 525 4666 
z
" transform="scale(0.015625)"/>
       </defs>
       <use xlink:href="#DejaVuSans-30"/>
       <use xlink:href="#DejaVuSans-2e" x="63.623047"/>
       <use xlink:href="#DejaVuSans-37" x="95.410156"/>
       <use xlink:href="#DejaVuSans-35" x="159.033203"/>
      </g>
     </g>
    </g>
    <g id="ytick_11">
     <g id="line2d_24">
      <g>
       <use xlink:href="#m8ae1a77779" x="50.14375" y="249.598125" style="stroke: #000000; stroke-width: 0.8"/>
      </g>
     </g>
     <g id="text_27">
      <!-- 1.00 -->
      <g transform="translate(20.878125 253.397344) scale(0.1 -0.1)">
       <use xlink:href="#DejaVuSans-31"/>
       <use xlink:href="#DejaVuSans-2e" x="63.623047"/>
       <use xlink:href="#DejaVuSans-30" x="95.410156"/>
       <use xlink:href="#DejaVuSans-30" x="159.033203"/>
      </g>
     </g>
    </g>
    <g id="text_28">
     <!-- multiplier -->
     <g transform="translate(14.798438 323.859844) rotate(-90) scale(0.1 -0.1)">
      <defs>
       <path id="DejaVuSans-70" d="M 1159 525 
L 1159 -1331 
L 581 -1331 
L 581 3500 
L 1159 3500 
L 1159 2969 
Q 1341 3281 1617 3432 
Q 1894 3584 2278 3584 
Q 2916 3584 3314 3078 
Q 3713 2572 3713 1747 
Q 3713 922 3314 415 
Q 2916 -91 2278 -91 
Q 1894 -91 1617 61 
Q 1341 213 1159 525 
z
M 3116 1747 
Q 3116 2381 2855 2742 
Q 2594 3103 2138 3103 
Q 1681 3103 1420 2742 
Q 1159 2381 1159 1747 
Q 1159 1113 1420 752 
Q 1681 391 2138 391 
Q 2594 391 2855 752 
Q 3116 1113 3116 1747 
z
" transform="scale(0.015625)"/>
      </defs>
      <use xlink:href="#DejaVuSans-6d"/>
      <use xlink:href="#DejaVuSans-75" x="97.412109"/>
      <use xlink:href="#DejaVuSans-6c" x="160.791016"/>
      <use xlink:href="#DejaVuSans-74" x="188.574219"/>
      <use xlink:href="#DejaVuSans-69" x="227.783203"/>
      <use xlink:href="#DejaVuSans-70" x="255.566406"/>
      <use xlink:href="#DejaVuSans-6c" x="319.042969"/>
      <use xlink:href="#DejaVuSans-69" x="346.826172"/>
      <use xlink:href="#DejaVuSans-65" x="374.609375"/>
      <use xlink:href="#DejaVuSans-72" x="436.132812"/>
     </g>
    </g>
   </g>
   <g id="line2d_25">
    <path d="M 83.116477 350.398125 
L 151.837191 350.291172 
L 169.01737 350.059641 
L 180.91134 349.692478 
L 190.162205 349.191873 
L 198.091518 348.534305 
L 204.699279 347.765453 
L 209.985488 346.966504 
L 215.271697 345.969641 
L 220.557906 344.740095 
L 225.844114 343.241134 
L 229.808771 341.91749 
L 233.773428 340.405428 
L 237.738084 338.689831 
L 241.702741 336.756653 
L 245.667397 334.593449 
L 249.632054 332.189936 
L 253.59671 329.538581 
L 257.561367 326.635208 
L 261.526024 323.479575 
L 265.49068 320.075938 
L 269.455337 316.433535 
L 274.741546 311.231695 
L 280.027754 305.682581 
L 286.635515 298.364775 
L 297.207933 286.205635 
L 305.137246 277.202405 
L 310.423455 271.501589 
L 314.388111 267.482373 
L 318.352768 263.747195 
L 322.317425 260.351696 
L 326.282081 257.348026 
L 328.925186 255.586871 
L 331.56829 254.033595 
L 334.211394 252.699427 
L 336.854499 251.594106 
L 339.497603 250.725774 
L 342.140708 250.100869 
L 344.783812 249.724047 
L 347.426916 249.598125 
L 480.903688 249.62962 
L 483.546792 249.881228 
L 486.189897 250.38256 
L 488.833001 251.129873 
L 491.476106 252.117613 
L 494.11921 253.338478 
L 496.762314 254.783513 
L 499.405419 256.442219 
L 502.048523 258.302678 
L 506.01318 261.442481 
L 509.977836 264.957201 
L 513.942493 268.793374 
L 519.228702 274.310385 
L 524.514911 280.160318 
L 535.087328 292.314394 
L 543.016641 301.33369 
L 549.624402 308.496667 
L 554.910611 313.879614 
L 560.19682 318.887725 
L 564.161476 322.372236 
L 568.126133 325.611246 
L 572.09079 328.598891 
L 576.055446 331.33397 
L 580.020103 333.819414 
L 583.984759 336.061702 
L 587.949416 338.070267 
L 591.914072 339.856898 
L 595.878729 341.435168 
L 599.843386 342.819892 
L 605.129594 344.392077 
L 610.415803 345.685477 
L 615.702012 346.737159 
L 620.988221 347.582466 
L 627.595982 348.398511 
L 634.203743 349.000099 
L 642.133056 349.506841 
L 652.705473 349.925978 
L 665.920995 350.196538 
L 685.744278 350.348307 
L 730.677053 350.39723 
L 742.571023 350.398075 
L 742.571023 350.398075 
" clip-path="url(#pa5ddde6e92)" style="fill: none; stroke-dasharray: 9.6,2.4,1.5,2.4; stroke-dashoffset: 0; stroke: #800080; stroke-width: 1.5"/>
   </g>
   <g id="patch_8">
    <path d="M 50.14375 355.438125 
L 50.14375 244.558125 
" style="fill: none; stroke: #000000; stroke-width: 0.8; stroke-linejoin: miter; stroke-linecap: square"/>
   </g>
   <g id="patch_9">
    <path d="M 775.54375 355.438125 
L 775.54375 244.558125 
" style="fill: none; stroke: #000000; stroke-width: 0.8; stroke-linejoin: miter; stroke-linecap: square"/>
   </g>
   <g id="patch_10">
    <path d="M 50.14375 355.438125 
L 775.54375 355.438125 
" style="fill: none; stroke: #000000; stroke-width: 0.8; stroke-linejoin: miter; stroke-linecap: square"/>
   </g>
   <g id="patch_11">
    <path d="M 50.14375 244.558125 
L 775.54375 244.558125 
" style="fill: none; stroke: #000000; stroke-width: 0.8; stroke-linejoin: miter; stroke-linecap: square"/>
   </g>
   <g id="text_29">
    <!-- Stosunek wielkości rowu oraz szelfu oceanicznego do ich maksymalnej wielkości -->
    <g transform="translate(171.322188 238.558125) scale(0.12 -0.12)">
     <defs>
      <path id="DejaVuSans-53" d="M 3425 4513 
L 3425 3897 
Q 3066 4069 2747 4153 
Q 2428 4238 2131 4238 
Q 1616 4238 1336 4038 
Q 1056 3838 1056 3469 
Q 1056 3159 1242 3001 
Q 1428 2844 1947 2747 
L 2328 2669 
Q 3034 2534 3370 2195 
Q 3706 1856 3706 1288 
Q 3706 609 3251 259 
Q 2797 -91 1919 -91 
Q 1588 -91 1214 -16 
Q 841 59 441 206 
L 441 856 
Q 825 641 1194 531 
Q 1563 422 1919 422 
Q 2459 422 2753 634 
Q 3047 847 3047 1241 
Q 3047 1584 2836 1778 
Q 2625 1972 2144 2069 
L 1759 2144 
Q 1053 2284 737 2584 
Q 422 2884 422 3419 
Q 422 4038 858 4394 
Q 1294 4750 2059 4750 
Q 2388 4750 2728 4690 
Q 3069 4631 3425 4513 
z
" transform="scale(0.015625)"/>
      <path id="DejaVuSans-73" d="M 2834 3397 
L 2834 2853 
Q 2591 2978 2328 3040 
Q 2066 3103 1784 3103 
Q 1356 3103 1142 2972 
Q 928 2841 928 2578 
Q 928 2378 1081 2264 
Q 1234 2150 1697 2047 
L 1894 2003 
Q 2506 1872 2764 1633 
Q 3022 1394 3022 966 
Q 3022 478 2636 193 
Q 2250 -91 1575 -91 
Q 1294 -91 989 -36 
Q 684 19 347 128 
L 347 722 
Q 666 556 975 473 
Q 1284 391 1588 391 
Q 1994 391 2212 530 
Q 2431 669 2431 922 
Q 2431 1156 2273 1281 
Q 2116 1406 1581 1522 
L 1381 1569 
Q 847 1681 609 1914 
Q 372 2147 372 2553 
Q 372 3047 722 3315 
Q 1072 3584 1716 3584 
Q 2034 3584 2315 3537 
Q 2597 3491 2834 3397 
z
" transform="scale(0.015625)"/>
      <path id="DejaVuSans-77" d="M 269 3500 
L 844 3500 
L 1563 769 
L 2278 3500 
L 2956 3500 
L 3675 769 
L 4391 3500 
L 4966 3500 
L 4050 0 
L 3372 0 
L 2619 2869 
L 1863 0 
L 1184 0 
L 269 3500 
z
" transform="scale(0.015625)"/>
      <path id="DejaVuSans-63" d="M 3122 3366 
L 3122 2828 
Q 2878 2963 2633 3030 
Q 2388 3097 2138 3097 
Q 1578 3097 1268 2742 
Q 959 2388 959 1747 
Q 959 1106 1268 751 
Q 1578 397 2138 397 
Q 2388 397 2633 464 
Q 2878 531 3122 666 
L 3122 134 
Q 2881 22 2623 -34 
Q 2366 -91 2075 -91 
Q 1284 -91 818 406 
Q 353 903 353 1747 
Q 353 2603 823 3093 
Q 1294 3584 2113 3584 
Q 2378 3584 2631 3529 
Q 2884 3475 3122 3366 
z
" transform="scale(0.015625)"/>
      <path id="DejaVuSans-7a" d="M 353 3500 
L 3084 3500 
L 3084 2975 
L 922 459 
L 3084 459 
L 3084 0 
L 275 0 
L 275 525 
L 2438 3041 
L 353 3041 
L 353 3500 
z
" transform="scale(0.015625)"/>
      <path id="DejaVuSans-67" d="M 2906 1791 
Q 2906 2416 2648 2759 
Q 2391 3103 1925 3103 
Q 1463 3103 1205 2759 
Q 947 2416 947 1791 
Q 947 1169 1205 825 
Q 1463 481 1925 481 
Q 2391 481 2648 825 
Q 2906 1169 2906 1791 
z
M 3481 434 
Q 3481 -459 3084 -895 
Q 2688 -1331 1869 -1331 
Q 1566 -1331 1297 -1286 
Q 1028 -1241 775 -1147 
L 775 -588 
Q 1028 -725 1275 -790 
Q 1522 -856 1778 -856 
Q 2344 -856 2625 -561 
Q 2906 -266 2906 331 
L 2906 616 
Q 2728 306 2450 153 
Q 2172 0 1784 0 
Q 1141 0 747 490 
Q 353 981 353 1791 
Q 353 2603 747 3093 
Q 1141 3584 1784 3584 
Q 2172 3584 2450 3431 
Q 2728 3278 2906 2969 
L 2906 3500 
L 3481 3500 
L 3481 434 
z
" transform="scale(0.015625)"/>
      <path id="DejaVuSans-6a" d="M 603 3500 
L 1178 3500 
L 1178 -63 
Q 1178 -731 923 -1031 
Q 669 -1331 103 -1331 
L -116 -1331 
L -116 -844 
L 38 -844 
Q 366 -844 484 -692 
Q 603 -541 603 -63 
L 603 3500 
z
M 603 4863 
L 1178 4863 
L 1178 4134 
L 603 4134 
L 603 4863 
z
" transform="scale(0.015625)"/>
     </defs>
     <use xlink:href="#DejaVuSans-53"/>
     <use xlink:href="#DejaVuSans-74" x="63.476562"/>
     <use xlink:href="#DejaVuSans-6f" x="102.685547"/>
     <use xlink:href="#DejaVuSans-73" x="163.867188"/>
     <use xlink:href="#DejaVuSans-75" x="215.966797"/>
     <use xlink:href="#DejaVuSans-6e" x="279.345703"/>
     <use xlink:href="#DejaVuSans-65" x="342.724609"/>
     <use xlink:href="#DejaVuSans-6b" x="404.248047"/>
     <use xlink:href="#DejaVuSans-20" x="462.158203"/>
     <use xlink:href="#DejaVuSans-77" x="493.945312"/>
     <use xlink:href="#DejaVuSans-69" x="575.732422"/>
     <use xlink:href="#DejaVuSans-65" x="603.515625"/>
     <use xlink:href="#DejaVuSans-6c" x="665.039062"/>
     <use xlink:href="#DejaVuSans-6b" x="692.822266"/>
     <use xlink:href="#DejaVuSans-6f" x="747.107422"/>
     <use xlink:href="#DejaVuSans-15b" x="808.289062"/>
     <use xlink:href="#DejaVuSans-63" x="860.388672"/>
     <use xlink:href="#DejaVuSans-69" x="915.369141"/>
     <use xlink:href="#DejaVuSans-20" x="943.152344"/>
     <use xlink:href="#DejaVuSans-72" x="974.939453"/>
     <use xlink:href="#DejaVuSans-6f" x="1013.802734"/>
     <use xlink:href="#DejaVuSans-77" x="1074.984375"/>
     <use xlink:href="#DejaVuSans-75" x="1156.771484"/>
     <use xlink:href="#DejaVuSans-20" x="1220.150391"/>
     <use xlink:href="#DejaVuSans-6f" x="1251.9375"/>
     <use xlink:href="#DejaVuSans-72" x="1313.119141"/>
     <use xlink:href="#DejaVuSans-61" x="1354.232422"/>
     <use xlink:href="#DejaVuSans-7a" x="1415.511719"/>
     <use xlink:href="#DejaVuSans-20" x="1468.001953"/>
     <use xlink:href="#DejaVuSans-73" x="1499.789062"/>
     <use xlink:href="#DejaVuSans-7a" x="1551.888672"/>
     <use xlink:href="#DejaVuSans-65" x="1604.378906"/>
     <use xlink:href="#DejaVuSans-6c" x="1665.902344"/>
     <use xlink:href="#DejaVuSans-66" x="1693.685547"/>
     <use xlink:href="#DejaVuSans-75" x="1728.890625"/>
     <use xlink:href="#DejaVuSans-20" x="1792.269531"/>
     <use xlink:href="#DejaVuSans-6f" x="1824.056641"/>
     <use xlink:href="#DejaVuSans-63" x="1885.238281"/>
     <use xlink:href="#DejaVuSans-65" x="1940.21875"/>
     <use xlink:href="#DejaVuSans-61" x="2001.742188"/>
     <use xlink:href="#DejaVuSans-6e" x="2063.021484"/>
     <use xlink:href="#DejaVuSans-69" x="2126.400391"/>
     <use xlink:href="#DejaVuSans-63" x="2154.183594"/>
     <use xlink:href="#DejaVuSans-7a" x="2209.164062"/>
     <use xlink:href="#DejaVuSans-6e" x="2261.654297"/>
     <use xlink:href="#DejaVuSans-65" x="2325.033203"/>
     <use xlink:href="#DejaVuSans-67" x="2386.556641"/>
     <use xlink:href="#DejaVuSans-6f" x="2450.033203"/>
     <use xlink:href="#DejaVuSans-20" x="2511.214844"/>
     <use xlink:href="#DejaVuSans-64" x="2543.001953"/>
     <use xlink:href="#DejaVuSans-6f" x="2606.478516"/>
     <use xlink:href="#DejaVuSans-20" x="2667.660156"/>
     <use xlink:href="#DejaVuSans-69" x="2699.447266"/>
     <use xlink:href="#DejaVuSans-63" x="2727.230469"/>
     <use xlink:href="#DejaVuSans-68" x="2782.210938"/>
     <use xlink:href="#DejaVuSans-20" x="2845.589844"/>
     <use xlink:href="#DejaVuSans-6d" x="2877.376953"/>
     <use xlink:href="#DejaVuSans-61" x="2974.789062"/>
     <use xlink:href="#DejaVuSans-6b" x="3036.068359"/>
     <use xlink:href="#DejaVuSans-73" x="3093.978516"/>
     <use xlink:href="#DejaVuSans-79" x="3146.078125"/>
     <use xlink:href="#DejaVuSans-6d" x="3205.257812"/>
     <use xlink:href="#DejaVuSans-61" x="3302.669922"/>
     <use xlink:href="#DejaVuSans-6c" x="3363.949219"/>
     <use xlink:href="#DejaVuSans-6e" x="3391.732422"/>
     <use xlink:href="#DejaVuSans-65" x="3455.111328"/>
     <use xlink:href="#DejaVuSans-6a" x="3516.634766"/>
     <use xlink:href="#DejaVuSans-20" x="3544.417969"/>
     <use xlink:href="#DejaVuSans-77" x="3576.205078"/>
     <use xlink:href="#DejaVuSans-69" x="3657.992188"/>
     <use xlink:href="#DejaVuSans-65" x="3685.775391"/>
     <use xlink:href="#DejaVuSans-6c" x="3747.298828"/>
     <use xlink:href="#DejaVuSans-6b" x="3775.082031"/>
     <use xlink:href="#DejaVuSans-6f" x="3829.367188"/>
     <use xlink:href="#DejaVuSans-15b" x="3890.548828"/>
     <use xlink:href="#DejaVuSans-63" x="3942.648438"/>
     <use xlink:href="#DejaVuSans-69" x="3997.628906"/>
    </g>
   </g>
  </g>
 </g>
 <defs>
  <clipPath id="p96fb8bcea9">
   <rect x="50.14375" y="22.798125" width="725.4" height="166.32"/>
  </clipPath>
  <clipPath id="pa5ddde6e92">
   <rect x="50.14375" y="244.558125" width="725.4" height="110.88"/>
  </clipPath>
 </defs>
</svg>
