<?xml version="1.0" encoding="utf-8" standalone="no"?>
<!DOCTYPE svg PUBLIC "-//W3C//DTD SVG 1.1//EN"
  "http://www.w3.org/Graphics/SVG/1.1/DTD/svg11.dtd">
<svg xmlns:xlink="http://www.w3.org/1999/xlink" width="660.326562pt" height="232.67625pt" viewBox="0 0 660.326562 232.67625" xmlns="http://www.w3.org/2000/svg" version="1.1">
 <metadata>
  <rdf:RDF xmlns:dc="http://purl.org/dc/elements/1.1/" xmlns:cc="http://creativecommons.org/ns#" xmlns:rdf="http://www.w3.org/1999/02/22-rdf-syntax-ns#">
   <cc:Work>
    <dc:type rdf:resource="http://purl.org/dc/dcmitype/StillImage"/>
    <dc:date>2025-12-10T00:52:55.630196</dc:date>
    <dc:format>image/svg+xml</dc:format>
    <dc:creator>
     <cc:Agent>
      <dc:title>Matplotlib v3.8.2, https://matplotlib.org/</dc:title>
     </cc:Agent>
    </dc:creator>
   </cc:Work>
  </rdf:RDF>
 </metadata>
 <defs>
  <style type="text/css">*{stroke-linejoin: round; stroke-linecap: butt}</style>
 </defs>
 <g id="figure_1">
  <g id="patch_1">
   <path d="M 0 232.67625 
L 660.326563 232.67625 
L 660.326563 0 
L 0 0 
z
" style="fill: #ffffff"/>
  </g>
  <g id="axes_1">
   <g id="patch_2">
    <path d="M 58.545313 195.12 
L 616.545313 195.12 
L 616.545313 28.8 
L 58.545313 28.8 
z
" style="fill: #ffffff"/>
   </g>
   <g id="matplotlib.axis_1">
    <g id="xtick_1">
     <g id="line2d_1">
      <defs>
       <path id="mfc4c2b5178" d="M 0 0 
L 0 3.5 
" style="stroke: #000000; stroke-width: 0.8"/>
      </defs>
      <g>
       <use xlink:href="#mfc4c2b5178" x="83.908949" y="195.12" style="stroke: #000000; stroke-width: 0.8"/>
      </g>
     </g>
     <g id="text_1">
      <!-- 0 -->
      <g transform="translate(80.727699 209.718437) scale(0.1 -0.1)">
       <defs>
        <path id="DejaVuSans-30" d="M 2034 4250 
Q 1547 4250 1301 3770 
Q 1056 3291 1056 2328 
Q 1056 1369 1301 889 
Q 1547 409 2034 409 
Q 2525 409 2770 889 
Q 3016 1369 3016 2328 
Q 3016 3291 2770 3770 
Q 2525 4250 2034 4250 
z
M 2034 4750 
Q 2819 4750 3233 4129 
Q 3647 3509 3647 2328 
Q 3647 1150 3233 529 
Q 2819 -91 2034 -91 
Q 1250 -91 836 529 
Q 422 1150 422 2328 
Q 422 3509 836 4129 
Q 1250 4750 2034 4750 
z
" transform="scale(0.015625)"/>
       </defs>
       <use xlink:href="#DejaVuSans-30"/>
      </g>
     </g>
    </g>
    <g id="xtick_2">
     <g id="line2d_2">
      <g>
       <use xlink:href="#mfc4c2b5178" x="186.388288" y="195.12" style="stroke: #000000; stroke-width: 0.8"/>
      </g>
     </g>
     <g id="text_2">
      <!-- 20 -->
      <g transform="translate(180.025788 209.718437) scale(0.1 -0.1)">
       <defs>
        <path id="DejaVuSans-32" d="M 1228 531 
L 3431 531 
L 3431 0 
L 469 0 
L 469 531 
Q 828 903 1448 1529 
Q 2069 2156 2228 2338 
Q 2531 2678 2651 2914 
Q 2772 3150 2772 3378 
Q 2772 3750 2511 3984 
Q 2250 4219 1831 4219 
Q 1534 4219 1204 4116 
Q 875 4013 500 3803 
L 500 4441 
Q 881 4594 1212 4672 
Q 1544 4750 1819 4750 
Q 2544 4750 2975 4387 
Q 3406 4025 3406 3419 
Q 3406 3131 3298 2873 
Q 3191 2616 2906 2266 
Q 2828 2175 2409 1742 
Q 1991 1309 1228 531 
z
" transform="scale(0.015625)"/>
       </defs>
       <use xlink:href="#DejaVuSans-32"/>
       <use xlink:href="#DejaVuSans-30" x="63.623047"/>
      </g>
     </g>
    </g>
    <g id="xtick_3">
     <g id="line2d_3">
      <g>
       <use xlink:href="#mfc4c2b5178" x="288.867627" y="195.12" style="stroke: #000000; stroke-width: 0.8"/>
      </g>
     </g>
     <g id="text_3">
      <!-- 40 -->
      <g transform="translate(282.505127 209.718437) scale(0.1 -0.1)">
       <defs>
        <path id="DejaVuSans-34" d="M 2419 4116 
L 825 1625 
L 2419 1625 
L 2419 4116 
z
M 2253 4666 
L 3047 4666 
L 3047 1625 
L 3713 1625 
L 3713 1100 
L 3047 1100 
L 3047 0 
L 2419 0 
L 2419 1100 
L 313 1100 
L 313 1709 
L 2253 4666 
z
" transform="scale(0.015625)"/>
       </defs>
       <use xlink:href="#DejaVuSans-34"/>
       <use xlink:href="#DejaVuSans-30" x="63.623047"/>
      </g>
     </g>
    </g>
    <g id="xtick_4">
     <g id="line2d_4">
      <g>
       <use xlink:href="#mfc4c2b5178" x="391.346965" y="195.12" style="stroke: #000000; stroke-width: 0.8"/>
      </g>
     </g>
     <g id="text_4">
      <!-- 60 -->
      <g transform="translate(384.984465 209.718437) scale(0.1 -0.1)">
       <defs>
        <path id="DejaVuSans-36" d="M 2113 2584 
Q 1688 2584 1439 2293 
Q 1191 2003 1191 1497 
Q 1191 994 1439 701 
Q 1688 409 2113 409 
Q 2538 409 2786 701 
Q 3034 994 3034 1497 
Q 3034 2003 2786 2293 
Q 2538 2584 2113 2584 
z
M 3366 4563 
L 3366 3988 
Q 3128 4100 2886 4159 
Q 2644 4219 2406 4219 
Q 1781 4219 1451 3797 
Q 1122 3375 1075 2522 
Q 1259 2794 1537 2939 
Q 1816 3084 2150 3084 
Q 2853 3084 3261 2657 
Q 3669 2231 3669 1497 
Q 3669 778 3244 343 
Q 2819 -91 2113 -91 
Q 1303 -91 875 529 
Q 447 1150 447 2328 
Q 447 3434 972 4092 
Q 1497 4750 2381 4750 
Q 2619 4750 2861 4703 
Q 3103 4656 3366 4563 
z
" transform="scale(0.015625)"/>
       </defs>
       <use xlink:href="#DejaVuSans-36"/>
       <use xlink:href="#DejaVuSans-30" x="63.623047"/>
      </g>
     </g>
    </g>
    <g id="xtick_5">
     <g id="line2d_5">
      <g>
       <use xlink:href="#mfc4c2b5178" x="493.826304" y="195.12" style="stroke: #000000; stroke-width: 0.8"/>
      </g>
     </g>
     <g id="text_5">
      <!-- 80 -->
      <g transform="translate(487.463804 209.718437) scale(0.1 -0.1)">
       <defs>
        <path id="DejaVuSans-38" d="M 2034 2216 
Q 1584 2216 1326 1975 
Q 1069 1734 1069 1313 
Q 1069 891 1326 650 
Q 1584 409 2034 409 
Q 2484 409 2743 651 
Q 3003 894 3003 1313 
Q 3003 1734 2745 1975 
Q 2488 2216 2034 2216 
z
M 1403 2484 
Q 997 2584 770 2862 
Q 544 3141 544 3541 
Q 544 4100 942 4425 
Q 1341 4750 2034 4750 
Q 2731 4750 3128 4425 
Q 3525 4100 3525 3541 
Q 3525 3141 3298 2862 
Q 3072 2584 2669 2484 
Q 3125 2378 3379 2068 
Q 3634 1759 3634 1313 
Q 3634 634 3220 271 
Q 2806 -91 2034 -91 
Q 1263 -91 848 271 
Q 434 634 434 1313 
Q 434 1759 690 2068 
Q 947 2378 1403 2484 
z
M 1172 3481 
Q 1172 3119 1398 2916 
Q 1625 2713 2034 2713 
Q 2441 2713 2670 2916 
Q 2900 3119 2900 3481 
Q 2900 3844 2670 4047 
Q 2441 4250 2034 4250 
Q 1625 4250 1398 4047 
Q 1172 3844 1172 3481 
z
" transform="scale(0.015625)"/>
       </defs>
       <use xlink:href="#DejaVuSans-38"/>
       <use xlink:href="#DejaVuSans-30" x="63.623047"/>
      </g>
     </g>
    </g>
    <g id="xtick_6">
     <g id="line2d_6">
      <g>
       <use xlink:href="#mfc4c2b5178" x="596.305643" y="195.12" style="stroke: #000000; stroke-width: 0.8"/>
      </g>
     </g>
     <g id="text_6">
      <!-- 100 -->
      <g transform="translate(586.761893 209.718437) scale(0.1 -0.1)">
       <defs>
        <path id="DejaVuSans-31" d="M 794 531 
L 1825 531 
L 1825 4091 
L 703 3866 
L 703 4441 
L 1819 4666 
L 2450 4666 
L 2450 531 
L 3481 531 
L 3481 0 
L 794 0 
L 794 531 
z
" transform="scale(0.015625)"/>
       </defs>
       <use xlink:href="#DejaVuSans-31"/>
       <use xlink:href="#DejaVuSans-30" x="63.623047"/>
       <use xlink:href="#DejaVuSans-30" x="127.246094"/>
      </g>
     </g>
    </g>
    <g id="text_7">
     <!-- y/$\Delta$y -->
     <g transform="translate(326.495313 223.37625) scale(0.1 -0.1)">
      <defs>
       <path id="DejaVuSans-79" d="M 2059 -325 
Q 1816 -950 1584 -1140 
Q 1353 -1331 966 -1331 
L 506 -1331 
L 506 -850 
L 844 -850 
Q 1081 -850 1212 -737 
Q 1344 -625 1503 -206 
L 1606 56 
L 191 3500 
L 800 3500 
L 1894 763 
L 2988 3500 
L 3597 3500 
L 2059 -325 
z
" transform="scale(0.015625)"/>
       <path id="DejaVuSans-2f" d="M 1625 4666 
L 2156 4666 
L 531 -594 
L 0 -594 
L 1625 4666 
z
" transform="scale(0.015625)"/>
       <path id="DejaVuSans-394" d="M 2188 4044 
L 906 525 
L 3472 525 
L 2188 4044 
z
M 50 0 
L 1831 4666 
L 2547 4666 
L 4325 0 
L 50 0 
z
" transform="scale(0.015625)"/>
      </defs>
      <use xlink:href="#DejaVuSans-79" transform="translate(0 0.09375)"/>
      <use xlink:href="#DejaVuSans-2f" transform="translate(59.179688 0.09375)"/>
      <use xlink:href="#DejaVuSans-394" transform="translate(92.871094 0.09375)"/>
      <use xlink:href="#DejaVuSans-79" transform="translate(161.279297 0.09375)"/>
     </g>
    </g>
   </g>
   <g id="matplotlib.axis_2">
    <g id="ytick_1">
     <g id="line2d_7">
      <defs>
       <path id="m0f4675f7b9" d="M 0 0 
L -3.5 0 
" style="stroke: #000000; stroke-width: 0.8"/>
      </defs>
      <g>
       <use xlink:href="#m0f4675f7b9" x="58.545313" y="190.614793" style="stroke: #000000; stroke-width: 0.8"/>
      </g>
     </g>
     <g id="text_8">
      <!-- −0.02 -->
      <g transform="translate(20.9 194.414012) scale(0.1 -0.1)">
       <defs>
        <path id="DejaVuSans-2212" d="M 678 2272 
L 4684 2272 
L 4684 1741 
L 678 1741 
L 678 2272 
z
" transform="scale(0.015625)"/>
        <path id="DejaVuSans-2e" d="M 684 794 
L 1344 794 
L 1344 0 
L 684 0 
L 684 794 
z
" transform="scale(0.015625)"/>
       </defs>
       <use xlink:href="#DejaVuSans-2212"/>
       <use xlink:href="#DejaVuSans-30" x="83.789062"/>
       <use xlink:href="#DejaVuSans-2e" x="147.412109"/>
       <use xlink:href="#DejaVuSans-30" x="179.199219"/>
       <use xlink:href="#DejaVuSans-32" x="242.822266"/>
      </g>
     </g>
    </g>
    <g id="ytick_2">
     <g id="line2d_8">
      <g>
       <use xlink:href="#m0f4675f7b9" x="58.545313" y="154.914329" style="stroke: #000000; stroke-width: 0.8"/>
      </g>
     </g>
     <g id="text_9">
      <!-- −0.01 -->
      <g transform="translate(20.9 158.713548) scale(0.1 -0.1)">
       <use xlink:href="#DejaVuSans-2212"/>
       <use xlink:href="#DejaVuSans-30" x="83.789062"/>
       <use xlink:href="#DejaVuSans-2e" x="147.412109"/>
       <use xlink:href="#DejaVuSans-30" x="179.199219"/>
       <use xlink:href="#DejaVuSans-31" x="242.822266"/>
      </g>
     </g>
    </g>
    <g id="ytick_3">
     <g id="line2d_9">
      <g>
       <use xlink:href="#m0f4675f7b9" x="58.545313" y="119.213865" style="stroke: #000000; stroke-width: 0.8"/>
      </g>
     </g>
     <g id="text_10">
      <!-- 0.00 -->
      <g transform="translate(29.279688 123.013084) scale(0.1 -0.1)">
       <use xlink:href="#DejaVuSans-30"/>
       <use xlink:href="#DejaVuSans-2e" x="63.623047"/>
       <use xlink:href="#DejaVuSans-30" x="95.410156"/>
       <use xlink:href="#DejaVuSans-30" x="159.033203"/>
      </g>
     </g>
    </g>
    <g id="ytick_4">
     <g id="line2d_10">
      <g>
       <use xlink:href="#m0f4675f7b9" x="58.545313" y="83.513401" style="stroke: #000000; stroke-width: 0.8"/>
      </g>
     </g>
     <g id="text_11">
      <!-- 0.01 -->
      <g transform="translate(29.279688 87.31262) scale(0.1 -0.1)">
       <use xlink:href="#DejaVuSans-30"/>
       <use xlink:href="#DejaVuSans-2e" x="63.623047"/>
       <use xlink:href="#DejaVuSans-30" x="95.410156"/>
       <use xlink:href="#DejaVuSans-31" x="159.033203"/>
      </g>
     </g>
    </g>
    <g id="ytick_5">
     <g id="line2d_11">
      <g>
       <use xlink:href="#m0f4675f7b9" x="58.545313" y="47.812938" style="stroke: #000000; stroke-width: 0.8"/>
      </g>
     </g>
     <g id="text_12">
      <!-- 0.02 -->
      <g transform="translate(29.279688 51.612156) scale(0.1 -0.1)">
       <use xlink:href="#DejaVuSans-30"/>
       <use xlink:href="#DejaVuSans-2e" x="63.623047"/>
       <use xlink:href="#DejaVuSans-30" x="95.410156"/>
       <use xlink:href="#DejaVuSans-32" x="159.033203"/>
      </g>
     </g>
    </g>
    <g id="text_13">
     <!-- $\zeta$ -->
     <g transform="translate(14.8 114.71) rotate(-90) scale(0.1 -0.1)">
      <defs>
       <path id="DejaVuSans-Oblique-3b6" d="M 1966 397 
Q 2378 394 2578 159 
Q 2794 -88 2722 -463 
Q 2650 -822 2372 -1072 
Q 2069 -1344 1559 -1344 
Q 1606 -1109 1650 -872 
Q 1863 -888 2022 -750 
Q 2144 -641 2166 -525 
Q 2197 -359 2125 -222 
Q 2050 -91 1872 -91 
Q -22 -91 316 1669 
Q 616 3206 2609 4284 
L 947 4284 
L 1059 4863 
L 3778 4863 
L 3666 4284 
Q 1181 3147 894 1669 
Q 647 397 1966 397 
z
" transform="scale(0.015625)"/>
      </defs>
      <use xlink:href="#DejaVuSans-Oblique-3b6" transform="translate(0 0.015625)"/>
     </g>
    </g>
   </g>
   <g id="line2d_12">
    <path d="M 83.908949 119.213865 
L 89.032916 123.889086 
L 94.156883 142.884502 
L 99.28085 175.381753 
L 104.404817 162.167172 
L 109.528784 48.907513 
L 114.652751 36.36 
L 119.776717 109.197543 
L 124.900684 114.059157 
L 130.024651 81.637838 
L 135.148618 84.362602 
L 140.272585 109.686695 
L 145.396552 116.519479 
L 150.520519 110.41554 
L 155.644486 105.632903 
L 160.768453 117.462854 
L 165.89242 122.957572 
L 171.016387 122.238127 
L 176.140354 124.391724 
L 181.264321 122.062893 
L 186.388288 113.572555 
L 191.512255 142.749015 
L 196.636222 108.117775 
L 201.760189 129.909159 
L 206.884155 130.39042 
L 212.008122 96.545464 
L 217.132089 144.253723 
L 222.256056 112.271699 
L 227.380023 104.783306 
L 232.50399 134.063396 
L 237.627957 106.287899 
L 242.751924 128.89786 
L 247.875891 104.440359 
L 252.999858 116.859506 
L 258.123825 130.958846 
L 263.247792 101.212453 
L 268.371759 132.298904 
L 273.495726 108.319081 
L 278.619693 113.526711 
L 283.74366 124.29288 
L 288.867627 117.568305 
L 293.991593 123.167912 
L 299.11556 104.618247 
L 304.239527 127.620163 
L 309.363494 117.380578 
L 314.487461 114.59191 
L 319.611428 125.705316 
L 324.735395 114.719738 
L 329.859362 118.570443 
L 334.983329 124.315068 
L 340.107296 118.958926 
L 345.231263 115.545957 
L 350.35523 118.898466 
L 355.479197 121.028194 
L 360.603164 121.017963 
L 365.727131 119.290336 
L 370.851098 114.779116 
L 375.975065 113.573907 
L 381.099032 112.346253 
L 386.222998 114.041605 
L 391.346965 117.032081 
L 396.470932 119.788962 
L 401.594899 121.88304 
L 406.718866 122.601454 
L 411.842833 119.674914 
L 416.9668 117.1068 
L 422.090767 111.129049 
L 427.214734 109.087067 
L 432.338701 107.545586 
L 437.462668 110.297662 
L 442.586635 118.38751 
L 447.710602 124.924344 
L 452.834569 137.439544 
L 457.958536 143.094579 
L 463.082503 152.343518 
L 468.20647 154.953602 
L 473.330436 157.410086 
L 478.454403 157.266797 
L 483.57837 153.832616 
L 488.702337 151.668254 
L 493.826304 144.929656 
L 498.950271 141.111065 
L 504.074238 132.935052 
L 509.198205 127.665364 
L 514.322172 119.160282 
L 519.446139 113.150673 
L 524.570106 104.892367 
L 529.694073 98.149978 
L 534.81804 90.720501 
L 539.942007 84.69801 
L 545.065974 78.339753 
L 550.189941 73.220584 
L 555.313908 68.460816 
L 560.437874 62.723481 
L 565.561841 61.944465 
L 570.685808 76.577675 
L 575.809775 99.26946 
L 580.933742 114.002304 
L 586.057709 118.582707 
L 591.181676 119.178393 
" clip-path="url(#pd1e0f20d27)" style="fill: none; stroke: #1f77b4; stroke-width: 5; stroke-linecap: square"/>
   </g>
   <g id="line2d_13">
    <path d="M 83.908949 119.213865 
L 89.032916 121.981902 
L 94.156883 143.483289 
L 99.28085 187.56 
L 104.404817 106.322646 
L 109.528784 79.203981 
L 114.652751 84.896663 
L 119.776717 87.999505 
L 124.900684 88.659881 
L 130.024651 95.759961 
L 135.148618 99.621004 
L 140.272585 103.762145 
L 145.396552 109.845361 
L 150.520519 110.384284 
L 155.644486 118.223442 
L 160.768453 116.816134 
L 165.89242 121.930891 
L 171.016387 121.654238 
L 176.140354 120.535897 
L 181.264321 122.091331 
L 186.388288 123.351542 
L 191.512255 125.930752 
L 196.636222 117.603691 
L 201.760189 117.942159 
L 206.884155 130.521978 
L 212.008122 121.810391 
L 217.132089 110.933608 
L 222.256056 113.719373 
L 227.380023 122.295757 
L 232.50399 125.126835 
L 237.627957 117.066412 
L 242.751924 110.692056 
L 247.875891 111.778761 
L 252.999858 121.09127 
L 258.123825 122.788697 
L 263.247792 119.06592 
L 268.371759 116.405661 
L 273.495726 109.021263 
L 278.619693 116.441659 
L 283.74366 121.08469 
L 288.867627 119.866565 
L 293.991593 124.273923 
L 299.11556 115.427183 
L 304.239527 115.293149 
L 309.363494 117.165045 
L 314.487461 121.595665 
L 319.611428 120.760849 
L 324.735395 117.271066 
L 329.859362 120.363286 
L 334.983329 120.381785 
L 340.107296 119.010057 
L 345.231263 120.047992 
L 350.35523 119.760877 
L 355.479197 117.441466 
L 360.603164 119.321604 
L 365.727131 118.708162 
L 370.851098 115.999777 
L 375.975065 115.903291 
L 381.099032 117.935009 
L 386.222998 118.188885 
L 391.346965 115.825524 
L 396.470932 114.138655 
L 401.594899 115.656263 
L 406.718866 118.825189 
L 411.842833 119.644673 
L 416.9668 117.082323 
L 422.090767 114.084227 
L 427.214734 115.045053 
L 432.338701 120.060414 
L 437.462668 124.196492 
L 442.586635 123.314379 
L 447.710602 119.294007 
L 452.834569 118.605355 
L 457.958536 125.9048 
L 463.082503 139.013644 
L 468.20647 151.569142 
L 473.330436 159.529422 
L 478.454403 162.236238 
L 483.57837 161.163588 
L 488.702337 157.523087 
L 493.826304 152.171494 
L 498.950271 145.657514 
L 504.074238 138.270252 
L 509.198205 130.374934 
L 514.322172 122.318755 
L 519.446139 114.233239 
L 524.570106 106.421509 
L 529.694073 98.771241 
L 534.81804 91.691767 
L 539.942007 84.896453 
L 545.065974 79.007269 
L 550.189941 73.705703 
L 555.313908 69.419405 
L 560.437874 66.583142 
L 565.561841 65.226197 
L 570.685808 68.343314 
L 575.809775 84.548219 
L 580.933742 110.601117 
L 586.057709 118.677135 
L 591.181676 119.209087 
" clip-path="url(#pd1e0f20d27)" style="fill: none; stroke: #ff7f0e; stroke-width: 3; stroke-linecap: square"/>
   </g>
   <g id="patch_3">
    <path d="M 58.545313 195.12 
L 58.545313 28.8 
" style="fill: none; stroke: #000000; stroke-width: 0.8; stroke-linejoin: miter; stroke-linecap: square"/>
   </g>
   <g id="patch_4">
    <path d="M 616.545313 195.12 
L 616.545313 28.8 
" style="fill: none; stroke: #000000; stroke-width: 0.8; stroke-linejoin: miter; stroke-linecap: square"/>
   </g>
   <g id="patch_5">
    <path d="M 58.545313 195.12 
L 616.545313 195.12 
" style="fill: none; stroke: #000000; stroke-width: 0.8; stroke-linejoin: miter; stroke-linecap: square"/>
   </g>
   <g id="patch_6">
    <path d="M 58.545313 28.8 
L 616.545313 28.8 
" style="fill: none; stroke: #000000; stroke-width: 0.8; stroke-linejoin: miter; stroke-linecap: square"/>
   </g>
  </g>
  <g id="axes_2">
   <g id="line2d_14">
    <path d="M 83.908949 36.36 
L 89.032916 36.918457 
L 94.156883 38.580076 
L 99.28085 41.303944 
L 104.404817 45.022989 
L 109.528784 49.645636 
L 114.652751 55.058061 
L 119.776717 61.126991 
L 124.900684 67.702989 
L 130.024651 74.624133 
L 135.148618 81.72 
L 140.272585 88.815867 
L 145.396552 95.737011 
L 150.520519 102.313009 
L 155.644486 108.381939 
L 160.768453 113.794364 
L 165.89242 118.417011 
L 171.016387 122.136056 
L 176.140354 124.859924 
L 181.264321 126.521543 
L 186.388288 127.08 
L 191.512255 127.08 
L 196.636222 127.08 
L 201.760189 127.08 
L 206.884155 127.08 
L 212.008122 127.08 
L 217.132089 127.411316 
L 222.256056 128.401633 
L 227.380023 130.040102 
L 232.50399 132.308771 
L 237.627957 135.182784 
L 242.751924 138.630652 
L 247.875891 142.614601 
L 252.999858 147.090981 
L 258.123825 152.010748 
L 263.247792 157.32 
L 268.371759 162.960568 
L 273.495726 168.870652 
L 278.619693 174.985501 
L 283.74366 181.238119 
L 288.867627 187.56 
L 293.991593 168.637687 
L 299.11556 150.181304 
L 304.239527 132.645309 
L 309.363494 116.461496 
L 314.487461 102.028364 
L 319.611428 89.701304 
L 324.735395 79.783851 
L 329.859362 72.520204 
L 334.983329 68.089218 
L 340.107296 66.6 
L 345.231263 67.811038 
L 350.35523 71.30216 
L 355.479197 76.674778 
L 360.603164 83.348566 
L 365.727131 90.664357 
L 370.851098 97.989934 
L 375.975065 104.805611 
L 381.099032 110.75482 
L 386.222998 115.65605 
L 391.346965 119.482392 
L 396.470932 122.321025 
L 401.594899 124.32625 
L 406.718866 125.677097 
L 411.842833 126.54595 
L 416.9668 127.08 
L 422.090767 127.08 
L 427.214734 127.08 
L 432.338701 127.08 
L 437.462668 127.08 
L 442.586635 127.08 
L 447.710602 127.08 
L 452.834569 127.08 
L 457.958536 127.08 
L 463.082503 127.08 
L 468.20647 127.08 
L 473.330436 127.08 
L 478.454403 127.08 
L 483.57837 127.08 
L 488.702337 127.08 
L 493.826304 126.521543 
L 498.950271 124.859924 
L 504.074238 122.136056 
L 509.198205 118.417011 
L 514.322172 113.794364 
L 519.446139 108.381939 
L 524.570106 102.313009 
L 529.694073 95.737011 
L 534.81804 88.815867 
L 539.942007 81.72 
L 545.065974 74.624133 
L 550.189941 67.702989 
L 555.313908 61.126991 
L 560.437874 55.058061 
L 565.561841 49.645636 
L 570.685808 45.022989 
L 575.809775 41.303944 
L 580.933742 38.580076 
L 586.057709 36.918457 
L 591.181676 36.36 
" clip-path="url(#pd1e0f20d27)" style="fill: none; stroke: #a52a2a; stroke-linecap: square"/>
   </g>
   <g id="PolyCollection_1">
    <defs>
     <path id="m33e55b3618" d="M 83.908949 -45.11625 
L 83.908949 -196.31625 
L 89.032916 -195.757793 
L 94.156883 -194.096174 
L 99.28085 -191.372306 
L 104.404817 -187.653261 
L 109.528784 -183.030614 
L 114.652751 -177.618189 
L 119.776717 -171.549259 
L 124.900684 -164.973261 
L 130.024651 -158.052117 
L 135.148618 -150.95625 
L 140.272585 -143.860383 
L 145.396552 -136.939239 
L 150.520519 -130.363241 
L 155.644486 -124.294311 
L 160.768453 -118.881886 
L 165.89242 -114.259239 
L 171.016387 -110.540194 
L 176.140354 -107.816326 
L 181.264321 -106.154707 
L 186.388288 -105.59625 
L 191.512255 -105.59625 
L 196.636222 -105.59625 
L 201.760189 -105.59625 
L 206.884155 -105.59625 
L 212.008122 -105.59625 
L 217.132089 -105.264934 
L 222.256056 -104.274617 
L 227.380023 -102.636148 
L 232.50399 -100.367479 
L 237.627957 -97.493466 
L 242.751924 -94.045598 
L 247.875891 -90.061649 
L 252.999858 -85.585269 
L 258.123825 -80.665502 
L 263.247792 -75.35625 
L 268.371759 -69.715682 
L 273.495726 -63.805598 
L 278.619693 -57.690749 
L 283.74366 -51.438131 
L 288.867627 -45.11625 
L 293.991593 -64.038563 
L 299.11556 -82.494946 
L 304.239527 -100.030941 
L 309.363494 -116.214754 
L 314.487461 -130.647886 
L 319.611428 -142.974946 
L 324.735395 -152.892399 
L 329.859362 -160.156046 
L 334.983329 -164.587032 
L 340.107296 -166.07625 
L 345.231263 -164.865212 
L 350.35523 -161.37409 
L 355.479197 -156.001472 
L 360.603164 -149.327684 
L 365.727131 -142.011893 
L 370.851098 -134.686316 
L 375.975065 -127.870639 
L 381.099032 -121.92143 
L 386.222998 -117.0202 
L 391.346965 -113.193858 
L 396.470932 -110.355225 
L 401.594899 -108.35 
L 406.718866 -106.999153 
L 411.842833 -106.1303 
L 416.9668 -105.59625 
L 422.090767 -105.59625 
L 427.214734 -105.59625 
L 432.338701 -105.59625 
L 437.462668 -105.59625 
L 442.586635 -105.59625 
L 447.710602 -105.59625 
L 452.834569 -105.59625 
L 457.958536 -105.59625 
L 463.082503 -105.59625 
L 468.20647 -105.59625 
L 473.330436 -105.59625 
L 478.454403 -105.59625 
L 483.57837 -105.59625 
L 488.702337 -105.59625 
L 493.826304 -106.154707 
L 498.950271 -107.816326 
L 504.074238 -110.540194 
L 509.198205 -114.259239 
L 514.322172 -118.881886 
L 519.446139 -124.294311 
L 524.570106 -130.363241 
L 529.694073 -136.939239 
L 534.81804 -143.860383 
L 539.942007 -150.95625 
L 545.065974 -158.052117 
L 550.189941 -164.973261 
L 555.313908 -171.549259 
L 560.437874 -177.618189 
L 565.561841 -183.030614 
L 570.685808 -187.653261 
L 575.809775 -191.372306 
L 580.933742 -194.096174 
L 586.057709 -195.757793 
L 591.181676 -196.31625 
L 591.181676 -45.11625 
L 591.181676 -45.11625 
L 586.057709 -45.11625 
L 580.933742 -45.11625 
L 575.809775 -45.11625 
L 570.685808 -45.11625 
L 565.561841 -45.11625 
L 560.437874 -45.11625 
L 555.313908 -45.11625 
L 550.189941 -45.11625 
L 545.065974 -45.11625 
L 539.942007 -45.11625 
L 534.81804 -45.11625 
L 529.694073 -45.11625 
L 524.570106 -45.11625 
L 519.446139 -45.11625 
L 514.322172 -45.11625 
L 509.198205 -45.11625 
L 504.074238 -45.11625 
L 498.950271 -45.11625 
L 493.826304 -45.11625 
L 488.702337 -45.11625 
L 483.57837 -45.11625 
L 478.454403 -45.11625 
L 473.330436 -45.11625 
L 468.20647 -45.11625 
L 463.082503 -45.11625 
L 457.958536 -45.11625 
L 452.834569 -45.11625 
L 447.710602 -45.11625 
L 442.586635 -45.11625 
L 437.462668 -45.11625 
L 432.338701 -45.11625 
L 427.214734 -45.11625 
L 422.090767 -45.11625 
L 416.9668 -45.11625 
L 411.842833 -45.11625 
L 406.718866 -45.11625 
L 401.594899 -45.11625 
L 396.470932 -45.11625 
L 391.346965 -45.11625 
L 386.222998 -45.11625 
L 381.099032 -45.11625 
L 375.975065 -45.11625 
L 370.851098 -45.11625 
L 365.727131 -45.11625 
L 360.603164 -45.11625 
L 355.479197 -45.11625 
L 350.35523 -45.11625 
L 345.231263 -45.11625 
L 340.107296 -45.11625 
L 334.983329 -45.11625 
L 329.859362 -45.11625 
L 324.735395 -45.11625 
L 319.611428 -45.11625 
L 314.487461 -45.11625 
L 309.363494 -45.11625 
L 304.239527 -45.11625 
L 299.11556 -45.11625 
L 293.991593 -45.11625 
L 288.867627 -45.11625 
L 283.74366 -45.11625 
L 278.619693 -45.11625 
L 273.495726 -45.11625 
L 268.371759 -45.11625 
L 263.247792 -45.11625 
L 258.123825 -45.11625 
L 252.999858 -45.11625 
L 247.875891 -45.11625 
L 242.751924 -45.11625 
L 237.627957 -45.11625 
L 232.50399 -45.11625 
L 227.380023 -45.11625 
L 222.256056 -45.11625 
L 217.132089 -45.11625 
L 212.008122 -45.11625 
L 206.884155 -45.11625 
L 201.760189 -45.11625 
L 196.636222 -45.11625 
L 191.512255 -45.11625 
L 186.388288 -45.11625 
L 181.264321 -45.11625 
L 176.140354 -45.11625 
L 171.016387 -45.11625 
L 165.89242 -45.11625 
L 160.768453 -45.11625 
L 155.644486 -45.11625 
L 150.520519 -45.11625 
L 145.396552 -45.11625 
L 140.272585 -45.11625 
L 135.148618 -45.11625 
L 130.024651 -45.11625 
L 124.900684 -45.11625 
L 119.776717 -45.11625 
L 114.652751 -45.11625 
L 109.528784 -45.11625 
L 104.404817 -45.11625 
L 99.28085 -45.11625 
L 94.156883 -45.11625 
L 89.032916 -45.11625 
L 83.908949 -45.11625 
z
" style="stroke: #a52a2a; stroke-opacity: 0.3"/>
    </defs>
    <g clip-path="url(#pd1e0f20d27)">
     <use xlink:href="#m33e55b3618" x="0" y="232.67625" style="fill: #a52a2a; fill-opacity: 0.3; stroke: #a52a2a; stroke-opacity: 0.3"/>
    </g>
   </g>
   <g id="matplotlib.axis_3">
    <g id="ytick_6">
     <g id="line2d_15">
      <defs>
       <path id="m0962bd7361" d="M 0 0 
L 3.5 0 
" style="stroke: #000000; stroke-width: 0.8"/>
      </defs>
      <g>
       <use xlink:href="#m0962bd7361" x="616.545313" y="187.56" style="stroke: #000000; stroke-width: 0.8"/>
      </g>
     </g>
     <g id="text_14">
      <!-- 0.0 -->
      <g transform="translate(623.545313 191.359219) scale(0.1 -0.1)">
       <use xlink:href="#DejaVuSans-30"/>
       <use xlink:href="#DejaVuSans-2e" x="63.623047"/>
       <use xlink:href="#DejaVuSans-30" x="95.410156"/>
      </g>
     </g>
    </g>
    <g id="ytick_7">
     <g id="line2d_16">
      <g>
       <use xlink:href="#m0962bd7361" x="616.545313" y="157.32" style="stroke: #000000; stroke-width: 0.8"/>
      </g>
     </g>
     <g id="text_15">
      <!-- 0.2 -->
      <g transform="translate(623.545313 161.119219) scale(0.1 -0.1)">
       <use xlink:href="#DejaVuSans-30"/>
       <use xlink:href="#DejaVuSans-2e" x="63.623047"/>
       <use xlink:href="#DejaVuSans-32" x="95.410156"/>
      </g>
     </g>
    </g>
    <g id="ytick_8">
     <g id="line2d_17">
      <g>
       <use xlink:href="#m0962bd7361" x="616.545313" y="127.08" style="stroke: #000000; stroke-width: 0.8"/>
      </g>
     </g>
     <g id="text_16">
      <!-- 0.4 -->
      <g transform="translate(623.545313 130.879219) scale(0.1 -0.1)">
       <use xlink:href="#DejaVuSans-30"/>
       <use xlink:href="#DejaVuSans-2e" x="63.623047"/>
       <use xlink:href="#DejaVuSans-34" x="95.410156"/>
      </g>
     </g>
    </g>
    <g id="ytick_9">
     <g id="line2d_18">
      <g>
       <use xlink:href="#m0962bd7361" x="616.545313" y="96.84" style="stroke: #000000; stroke-width: 0.8"/>
      </g>
     </g>
     <g id="text_17">
      <!-- 0.6 -->
      <g transform="translate(623.545313 100.639219) scale(0.1 -0.1)">
       <use xlink:href="#DejaVuSans-30"/>
       <use xlink:href="#DejaVuSans-2e" x="63.623047"/>
       <use xlink:href="#DejaVuSans-36" x="95.410156"/>
      </g>
     </g>
    </g>
    <g id="ytick_10">
     <g id="line2d_19">
      <g>
       <use xlink:href="#m0962bd7361" x="616.545313" y="66.6" style="stroke: #000000; stroke-width: 0.8"/>
      </g>
     </g>
     <g id="text_18">
      <!-- 0.8 -->
      <g transform="translate(623.545313 70.399219) scale(0.1 -0.1)">
       <use xlink:href="#DejaVuSans-30"/>
       <use xlink:href="#DejaVuSans-2e" x="63.623047"/>
       <use xlink:href="#DejaVuSans-38" x="95.410156"/>
      </g>
     </g>
    </g>
    <g id="ytick_11">
     <g id="line2d_20">
      <g>
       <use xlink:href="#m0962bd7361" x="616.545313" y="36.36" style="stroke: #000000; stroke-width: 0.8"/>
      </g>
     </g>
     <g id="text_19">
      <!-- 1.0 -->
      <g transform="translate(623.545313 40.159219) scale(0.1 -0.1)">
       <use xlink:href="#DejaVuSans-31"/>
       <use xlink:href="#DejaVuSans-2e" x="63.623047"/>
       <use xlink:href="#DejaVuSans-30" x="95.410156"/>
      </g>
     </g>
    </g>
    <g id="text_20">
     <!-- 1 - bathymetry -->
     <g transform="translate(651.046875 149.371719) rotate(-90) scale(0.1 -0.1)">
      <defs>
       <path id="DejaVuSans-20" transform="scale(0.015625)"/>
       <path id="DejaVuSans-2d" d="M 313 2009 
L 1997 2009 
L 1997 1497 
L 313 1497 
L 313 2009 
z
" transform="scale(0.015625)"/>
       <path id="DejaVuSans-62" d="M 3116 1747 
Q 3116 2381 2855 2742 
Q 2594 3103 2138 3103 
Q 1681 3103 1420 2742 
Q 1159 2381 1159 1747 
Q 1159 1113 1420 752 
Q 1681 391 2138 391 
Q 2594 391 2855 752 
Q 3116 1113 3116 1747 
z
M 1159 2969 
Q 1341 3281 1617 3432 
Q 1894 3584 2278 3584 
Q 2916 3584 3314 3078 
Q 3713 2572 3713 1747 
Q 3713 922 3314 415 
Q 2916 -91 2278 -91 
Q 1894 -91 1617 61 
Q 1341 213 1159 525 
L 1159 0 
L 581 0 
L 581 4863 
L 1159 4863 
L 1159 2969 
z
" transform="scale(0.015625)"/>
       <path id="DejaVuSans-61" d="M 2194 1759 
Q 1497 1759 1228 1600 
Q 959 1441 959 1056 
Q 959 750 1161 570 
Q 1363 391 1709 391 
Q 2188 391 2477 730 
Q 2766 1069 2766 1631 
L 2766 1759 
L 2194 1759 
z
M 3341 1997 
L 3341 0 
L 2766 0 
L 2766 531 
Q 2569 213 2275 61 
Q 1981 -91 1556 -91 
Q 1019 -91 701 211 
Q 384 513 384 1019 
Q 384 1609 779 1909 
Q 1175 2209 1959 2209 
L 2766 2209 
L 2766 2266 
Q 2766 2663 2505 2880 
Q 2244 3097 1772 3097 
Q 1472 3097 1187 3025 
Q 903 2953 641 2809 
L 641 3341 
Q 956 3463 1253 3523 
Q 1550 3584 1831 3584 
Q 2591 3584 2966 3190 
Q 3341 2797 3341 1997 
z
" transform="scale(0.015625)"/>
       <path id="DejaVuSans-74" d="M 1172 4494 
L 1172 3500 
L 2356 3500 
L 2356 3053 
L 1172 3053 
L 1172 1153 
Q 1172 725 1289 603 
Q 1406 481 1766 481 
L 2356 481 
L 2356 0 
L 1766 0 
Q 1100 0 847 248 
Q 594 497 594 1153 
L 594 3053 
L 172 3053 
L 172 3500 
L 594 3500 
L 594 4494 
L 1172 4494 
z
" transform="scale(0.015625)"/>
       <path id="DejaVuSans-68" d="M 3513 2113 
L 3513 0 
L 2938 0 
L 2938 2094 
Q 2938 2591 2744 2837 
Q 2550 3084 2163 3084 
Q 1697 3084 1428 2787 
Q 1159 2491 1159 1978 
L 1159 0 
L 581 0 
L 581 4863 
L 1159 4863 
L 1159 2956 
Q 1366 3272 1645 3428 
Q 1925 3584 2291 3584 
Q 2894 3584 3203 3211 
Q 3513 2838 3513 2113 
z
" transform="scale(0.015625)"/>
       <path id="DejaVuSans-6d" d="M 3328 2828 
Q 3544 3216 3844 3400 
Q 4144 3584 4550 3584 
Q 5097 3584 5394 3201 
Q 5691 2819 5691 2113 
L 5691 0 
L 5113 0 
L 5113 2094 
Q 5113 2597 4934 2840 
Q 4756 3084 4391 3084 
Q 3944 3084 3684 2787 
Q 3425 2491 3425 1978 
L 3425 0 
L 2847 0 
L 2847 2094 
Q 2847 2600 2669 2842 
Q 2491 3084 2119 3084 
Q 1678 3084 1418 2786 
Q 1159 2488 1159 1978 
L 1159 0 
L 581 0 
L 581 3500 
L 1159 3500 
L 1159 2956 
Q 1356 3278 1631 3431 
Q 1906 3584 2284 3584 
Q 2666 3584 2933 3390 
Q 3200 3197 3328 2828 
z
" transform="scale(0.015625)"/>
       <path id="DejaVuSans-65" d="M 3597 1894 
L 3597 1613 
L 953 1613 
Q 991 1019 1311 708 
Q 1631 397 2203 397 
Q 2534 397 2845 478 
Q 3156 559 3463 722 
L 3463 178 
Q 3153 47 2828 -22 
Q 2503 -91 2169 -91 
Q 1331 -91 842 396 
Q 353 884 353 1716 
Q 353 2575 817 3079 
Q 1281 3584 2069 3584 
Q 2775 3584 3186 3129 
Q 3597 2675 3597 1894 
z
M 3022 2063 
Q 3016 2534 2758 2815 
Q 2500 3097 2075 3097 
Q 1594 3097 1305 2825 
Q 1016 2553 972 2059 
L 3022 2063 
z
" transform="scale(0.015625)"/>
       <path id="DejaVuSans-72" d="M 2631 2963 
Q 2534 3019 2420 3045 
Q 2306 3072 2169 3072 
Q 1681 3072 1420 2755 
Q 1159 2438 1159 1844 
L 1159 0 
L 581 0 
L 581 3500 
L 1159 3500 
L 1159 2956 
Q 1341 3275 1631 3429 
Q 1922 3584 2338 3584 
Q 2397 3584 2469 3576 
Q 2541 3569 2628 3553 
L 2631 2963 
z
" transform="scale(0.015625)"/>
      </defs>
      <use xlink:href="#DejaVuSans-31"/>
      <use xlink:href="#DejaVuSans-20" x="63.623047"/>
      <use xlink:href="#DejaVuSans-2d" x="95.410156"/>
      <use xlink:href="#DejaVuSans-20" x="131.494141"/>
      <use xlink:href="#DejaVuSans-62" x="163.28125"/>
      <use xlink:href="#DejaVuSans-61" x="226.757812"/>
      <use xlink:href="#DejaVuSans-74" x="288.037109"/>
      <use xlink:href="#DejaVuSans-68" x="327.246094"/>
      <use xlink:href="#DejaVuSans-79" x="390.625"/>
      <use xlink:href="#DejaVuSans-6d" x="449.804688"/>
      <use xlink:href="#DejaVuSans-65" x="547.216797"/>
      <use xlink:href="#DejaVuSans-74" x="608.740234"/>
      <use xlink:href="#DejaVuSans-72" x="647.949219"/>
      <use xlink:href="#DejaVuSans-79" x="689.0625"/>
     </g>
    </g>
   </g>
   <g id="patch_7">
    <path d="M 58.545313 195.12 
L 58.545313 28.8 
" style="fill: none; stroke: #000000; stroke-width: 0.8; stroke-linejoin: miter; stroke-linecap: square"/>
   </g>
   <g id="patch_8">
    <path d="M 616.545313 195.12 
L 616.545313 28.8 
" style="fill: none; stroke: #000000; stroke-width: 0.8; stroke-linejoin: miter; stroke-linecap: square"/>
   </g>
   <g id="patch_9">
    <path d="M 58.545313 195.12 
L 616.545313 195.12 
" style="fill: none; stroke: #000000; stroke-width: 0.8; stroke-linejoin: miter; stroke-linecap: square"/>
   </g>
   <g id="patch_10">
    <path d="M 58.545313 28.8 
L 616.545313 28.8 
" style="fill: none; stroke: #000000; stroke-width: 0.8; stroke-linejoin: miter; stroke-linecap: square"/>
   </g>
  </g>
  <g id="text_21">
   <!-- Rysunek 4 -->
   <g transform="translate(297.53375 16.318125) scale(0.12 -0.12)">
    <defs>
     <path id="DejaVuSans-52" d="M 2841 2188 
Q 3044 2119 3236 1894 
Q 3428 1669 3622 1275 
L 4263 0 
L 3584 0 
L 2988 1197 
Q 2756 1666 2539 1819 
Q 2322 1972 1947 1972 
L 1259 1972 
L 1259 0 
L 628 0 
L 628 4666 
L 2053 4666 
Q 2853 4666 3247 4331 
Q 3641 3997 3641 3322 
Q 3641 2881 3436 2590 
Q 3231 2300 2841 2188 
z
M 1259 4147 
L 1259 2491 
L 2053 2491 
Q 2509 2491 2742 2702 
Q 2975 2913 2975 3322 
Q 2975 3731 2742 3939 
Q 2509 4147 2053 4147 
L 1259 4147 
z
" transform="scale(0.015625)"/>
     <path id="DejaVuSans-73" d="M 2834 3397 
L 2834 2853 
Q 2591 2978 2328 3040 
Q 2066 3103 1784 3103 
Q 1356 3103 1142 2972 
Q 928 2841 928 2578 
Q 928 2378 1081 2264 
Q 1234 2150 1697 2047 
L 1894 2003 
Q 2506 1872 2764 1633 
Q 3022 1394 3022 966 
Q 3022 478 2636 193 
Q 2250 -91 1575 -91 
Q 1294 -91 989 -36 
Q 684 19 347 128 
L 347 722 
Q 666 556 975 473 
Q 1284 391 1588 391 
Q 1994 391 2212 530 
Q 2431 669 2431 922 
Q 2431 1156 2273 1281 
Q 2116 1406 1581 1522 
L 1381 1569 
Q 847 1681 609 1914 
Q 372 2147 372 2553 
Q 372 3047 722 3315 
Q 1072 3584 1716 3584 
Q 2034 3584 2315 3537 
Q 2597 3491 2834 3397 
z
" transform="scale(0.015625)"/>
     <path id="DejaVuSans-75" d="M 544 1381 
L 544 3500 
L 1119 3500 
L 1119 1403 
Q 1119 906 1312 657 
Q 1506 409 1894 409 
Q 2359 409 2629 706 
Q 2900 1003 2900 1516 
L 2900 3500 
L 3475 3500 
L 3475 0 
L 2900 0 
L 2900 538 
Q 2691 219 2414 64 
Q 2138 -91 1772 -91 
Q 1169 -91 856 284 
Q 544 659 544 1381 
z
M 1991 3584 
L 1991 3584 
z
" transform="scale(0.015625)"/>
     <path id="DejaVuSans-6e" d="M 3513 2113 
L 3513 0 
L 2938 0 
L 2938 2094 
Q 2938 2591 2744 2837 
Q 2550 3084 2163 3084 
Q 1697 3084 1428 2787 
Q 1159 2491 1159 1978 
L 1159 0 
L 581 0 
L 581 3500 
L 1159 3500 
L 1159 2956 
Q 1366 3272 1645 3428 
Q 1925 3584 2291 3584 
Q 2894 3584 3203 3211 
Q 3513 2838 3513 2113 
z
" transform="scale(0.015625)"/>
     <path id="DejaVuSans-6b" d="M 581 4863 
L 1159 4863 
L 1159 1991 
L 2875 3500 
L 3609 3500 
L 1753 1863 
L 3688 0 
L 2938 0 
L 1159 1709 
L 1159 0 
L 581 0 
L 581 4863 
z
" transform="scale(0.015625)"/>
    </defs>
    <use xlink:href="#DejaVuSans-52"/>
    <use xlink:href="#DejaVuSans-79" x="63.982422"/>
    <use xlink:href="#DejaVuSans-73" x="123.162109"/>
    <use xlink:href="#DejaVuSans-75" x="175.261719"/>
    <use xlink:href="#DejaVuSans-6e" x="238.640625"/>
    <use xlink:href="#DejaVuSans-65" x="302.019531"/>
    <use xlink:href="#DejaVuSans-6b" x="363.542969"/>
    <use xlink:href="#DejaVuSans-20" x="421.453125"/>
    <use xlink:href="#DejaVuSans-34" x="453.240234"/>
   </g>
  </g>
  <g id="legend_1">
   <g id="patch_11">
    <path d="M 181.645313 76.558125 
L 321.545313 76.558125 
Q 323.545313 76.558125 323.545313 74.558125 
L 323.545313 31.48 
Q 323.545313 29.48 321.545313 29.48 
L 181.645313 29.48 
Q 179.645313 29.48 179.645313 31.48 
L 179.645313 74.558125 
Q 179.645313 76.558125 181.645313 76.558125 
z
" style="fill: #ffffff; opacity: 0.8; stroke: #cccccc; stroke-linejoin: miter"/>
   </g>
   <g id="line2d_21">
    <path d="M 183.645313 37.58 
L 193.645313 37.58 
L 203.645313 37.58 
" style="fill: none; stroke: #1f77b4; stroke-width: 5; stroke-linecap: square"/>
   </g>
   <g id="text_22">
    <!-- $\zeta$ - siatka 500 $\times$ 100 -->
    <g transform="translate(211.645313 41.08) scale(0.1 -0.1)">
     <defs>
      <path id="DejaVuSans-69" d="M 603 3500 
L 1178 3500 
L 1178 0 
L 603 0 
L 603 3500 
z
M 603 4863 
L 1178 4863 
L 1178 4134 
L 603 4134 
L 603 4863 
z
" transform="scale(0.015625)"/>
      <path id="DejaVuSans-35" d="M 691 4666 
L 3169 4666 
L 3169 4134 
L 1269 4134 
L 1269 2991 
Q 1406 3038 1543 3061 
Q 1681 3084 1819 3084 
Q 2600 3084 3056 2656 
Q 3513 2228 3513 1497 
Q 3513 744 3044 326 
Q 2575 -91 1722 -91 
Q 1428 -91 1123 -41 
Q 819 9 494 109 
L 494 744 
Q 775 591 1075 516 
Q 1375 441 1709 441 
Q 2250 441 2565 725 
Q 2881 1009 2881 1497 
Q 2881 1984 2565 2268 
Q 2250 2553 1709 2553 
Q 1456 2553 1204 2497 
Q 953 2441 691 2322 
L 691 4666 
z
" transform="scale(0.015625)"/>
      <path id="DejaVuSans-d7" d="M 4488 3438 
L 3059 2003 
L 4488 575 
L 4116 197 
L 2681 1631 
L 1247 197 
L 878 575 
L 2303 2003 
L 878 3438 
L 1247 3816 
L 2681 2381 
L 4116 3816 
L 4488 3438 
z
" transform="scale(0.015625)"/>
     </defs>
     <use xlink:href="#DejaVuSans-Oblique-3b6" transform="translate(0 0.015625)"/>
     <use xlink:href="#DejaVuSans-20" transform="translate(54.394531 0.015625)"/>
     <use xlink:href="#DejaVuSans-2d" transform="translate(86.181641 0.015625)"/>
     <use xlink:href="#DejaVuSans-20" transform="translate(122.265625 0.015625)"/>
     <use xlink:href="#DejaVuSans-73" transform="translate(154.052734 0.015625)"/>
     <use xlink:href="#DejaVuSans-69" transform="translate(206.152344 0.015625)"/>
     <use xlink:href="#DejaVuSans-61" transform="translate(233.935547 0.015625)"/>
     <use xlink:href="#DejaVuSans-74" transform="translate(295.214844 0.015625)"/>
     <use xlink:href="#DejaVuSans-6b" transform="translate(334.423828 0.015625)"/>
     <use xlink:href="#DejaVuSans-61" transform="translate(392.333984 0.015625)"/>
     <use xlink:href="#DejaVuSans-20" transform="translate(453.613281 0.015625)"/>
     <use xlink:href="#DejaVuSans-35" transform="translate(485.400391 0.015625)"/>
     <use xlink:href="#DejaVuSans-30" transform="translate(549.023438 0.015625)"/>
     <use xlink:href="#DejaVuSans-30" transform="translate(612.646484 0.015625)"/>
     <use xlink:href="#DejaVuSans-20" transform="translate(676.269531 0.015625)"/>
     <use xlink:href="#DejaVuSans-d7" transform="translate(708.056641 0.015625)"/>
     <use xlink:href="#DejaVuSans-20" transform="translate(791.845703 0.015625)"/>
     <use xlink:href="#DejaVuSans-31" transform="translate(823.632812 0.015625)"/>
     <use xlink:href="#DejaVuSans-30" transform="translate(887.255859 0.015625)"/>
     <use xlink:href="#DejaVuSans-30" transform="translate(950.878906 0.015625)"/>
    </g>
   </g>
   <g id="line2d_22">
    <path d="M 183.645313 52.28 
L 193.645313 52.28 
L 203.645313 52.28 
" style="fill: none; stroke: #ff7f0e; stroke-width: 3; stroke-linecap: square"/>
   </g>
   <g id="text_23">
    <!-- $\zeta$ - siatka 1000 $\times$ 200 -->
    <g transform="translate(211.645313 55.78) scale(0.1 -0.1)">
     <use xlink:href="#DejaVuSans-Oblique-3b6" transform="translate(0 0.015625)"/>
     <use xlink:href="#DejaVuSans-20" transform="translate(54.394531 0.015625)"/>
     <use xlink:href="#DejaVuSans-2d" transform="translate(86.181641 0.015625)"/>
     <use xlink:href="#DejaVuSans-20" transform="translate(122.265625 0.015625)"/>
     <use xlink:href="#DejaVuSans-73" transform="translate(154.052734 0.015625)"/>
     <use xlink:href="#DejaVuSans-69" transform="translate(206.152344 0.015625)"/>
     <use xlink:href="#DejaVuSans-61" transform="translate(233.935547 0.015625)"/>
     <use xlink:href="#DejaVuSans-74" transform="translate(295.214844 0.015625)"/>
     <use xlink:href="#DejaVuSans-6b" transform="translate(334.423828 0.015625)"/>
     <use xlink:href="#DejaVuSans-61" transform="translate(392.333984 0.015625)"/>
     <use xlink:href="#DejaVuSans-20" transform="translate(453.613281 0.015625)"/>
     <use xlink:href="#DejaVuSans-31" transform="translate(485.400391 0.015625)"/>
     <use xlink:href="#DejaVuSans-30" transform="translate(549.023438 0.015625)"/>
     <use xlink:href="#DejaVuSans-30" transform="translate(612.646484 0.015625)"/>
     <use xlink:href="#DejaVuSans-30" transform="translate(676.269531 0.015625)"/>
     <use xlink:href="#DejaVuSans-20" transform="translate(739.892578 0.015625)"/>
     <use xlink:href="#DejaVuSans-d7" transform="translate(771.679688 0.015625)"/>
     <use xlink:href="#DejaVuSans-20" transform="translate(855.46875 0.015625)"/>
     <use xlink:href="#DejaVuSans-32" transform="translate(887.255859 0.015625)"/>
     <use xlink:href="#DejaVuSans-30" transform="translate(950.878906 0.015625)"/>
     <use xlink:href="#DejaVuSans-30" transform="translate(1014.501953 0.015625)"/>
    </g>
   </g>
   <g id="patch_12">
    <path d="M 183.645313 70.478437 
L 203.645313 70.478437 
L 203.645313 63.478437 
L 183.645313 63.478437 
z
" style="fill: #a52a2a; fill-opacity: 0.3; stroke: #a52a2a; stroke-opacity: 0.3; stroke-linejoin: miter"/>
   </g>
   <g id="text_24">
    <!-- 1-bathymetry -->
    <g transform="translate(211.645313 70.478437) scale(0.1 -0.1)">
     <use xlink:href="#DejaVuSans-31"/>
     <use xlink:href="#DejaVuSans-2d" x="63.623047"/>
     <use xlink:href="#DejaVuSans-62" x="99.707031"/>
     <use xlink:href="#DejaVuSans-61" x="163.183594"/>
     <use xlink:href="#DejaVuSans-74" x="224.462891"/>
     <use xlink:href="#DejaVuSans-68" x="263.671875"/>
     <use xlink:href="#DejaVuSans-79" x="327.050781"/>
     <use xlink:href="#DejaVuSans-6d" x="386.230469"/>
     <use xlink:href="#DejaVuSans-65" x="483.642578"/>
     <use xlink:href="#DejaVuSans-74" x="545.166016"/>
     <use xlink:href="#DejaVuSans-72" x="584.375"/>
     <use xlink:href="#DejaVuSans-79" x="625.488281"/>
    </g>
   </g>
  </g>
 </g>
 <defs>
  <clipPath id="pd1e0f20d27">
   <rect x="58.545313" y="28.8" width="558" height="166.32"/>
  </clipPath>
 </defs>
</svg>
